<mxfile host="Electron" modified="2023-12-31T17:26:43.650Z" agent="Mozilla/5.0 (Windows NT 10.0; Win64; x64) AppleWebKit/537.36 (KHTML, like Gecko) draw.io/22.1.11 Chrome/114.0.5735.289 Electron/25.9.8 Safari/537.36" etag="6q9jBONLKJIZ6wt32PiK" version="22.1.11" type="device">
  <diagram id="R2lEEEUBdFMjLlhIrx00" name="Page-1">
    <mxGraphModel dx="1418" dy="820" grid="1" gridSize="10" guides="1" tooltips="1" connect="1" arrows="1" fold="1" page="1" pageScale="1" pageWidth="1169" pageHeight="827" background="none" math="0" shadow="0" extFonts="Permanent Marker^https://fonts.googleapis.com/css?family=Permanent+Marker">
      <root>
        <mxCell id="0" />
        <mxCell id="1" parent="0" />
        <mxCell id="GqP4DYXTLEp6i3isbO8n-999" value="matches&lt;br&gt;" style="shape=table;startSize=30;container=1;collapsible=1;childLayout=tableLayout;fixedRows=1;rowLines=0;fontStyle=1;align=center;resizeLast=1;html=1;strokeColor=#788AA3;fontColor=#46495D;fillColor=#B2C9AB;rounded=1;labelBackgroundColor=none;" parent="1" vertex="1">
          <mxGeometry x="423" y="218" width="250" height="330" as="geometry">
            <mxRectangle x="700" y="260" width="90" height="30" as="alternateBounds" />
          </mxGeometry>
        </mxCell>
        <mxCell id="GqP4DYXTLEp6i3isbO8n-1000" value="" style="shape=tableRow;horizontal=0;startSize=0;swimlaneHead=0;swimlaneBody=0;fillColor=none;collapsible=0;dropTarget=0;points=[[0,0.5],[1,0.5]];portConstraint=eastwest;top=0;left=0;right=0;bottom=1;strokeColor=#788AA3;fontColor=#46495D;rounded=1;labelBackgroundColor=none;" parent="GqP4DYXTLEp6i3isbO8n-999" vertex="1">
          <mxGeometry y="30" width="250" height="30" as="geometry" />
        </mxCell>
        <mxCell id="GqP4DYXTLEp6i3isbO8n-1001" value="PK" style="shape=partialRectangle;connectable=0;fillColor=none;top=0;left=0;bottom=0;right=0;fontStyle=1;overflow=hidden;whiteSpace=wrap;html=1;strokeColor=#788AA3;fontColor=#46495D;rounded=1;labelBackgroundColor=none;" parent="GqP4DYXTLEp6i3isbO8n-1000" vertex="1">
          <mxGeometry width="30" height="30" as="geometry">
            <mxRectangle width="30" height="30" as="alternateBounds" />
          </mxGeometry>
        </mxCell>
        <mxCell id="GqP4DYXTLEp6i3isbO8n-1002" value="match_id" style="shape=partialRectangle;connectable=0;fillColor=none;top=0;left=0;bottom=0;right=0;align=left;spacingLeft=6;fontStyle=1;overflow=hidden;whiteSpace=wrap;html=1;strokeColor=#788AA3;fontColor=#46495D;rounded=1;labelBackgroundColor=none;" parent="GqP4DYXTLEp6i3isbO8n-1000" vertex="1">
          <mxGeometry x="30" width="120" height="30" as="geometry">
            <mxRectangle width="120" height="30" as="alternateBounds" />
          </mxGeometry>
        </mxCell>
        <mxCell id="GqP4DYXTLEp6i3isbO8n-1003" value="INT" style="shape=partialRectangle;connectable=0;fillColor=none;top=0;left=0;bottom=0;right=0;align=left;spacingLeft=6;fontStyle=1;overflow=hidden;whiteSpace=wrap;html=1;strokeColor=#788AA3;fontColor=#46495D;rounded=1;labelBackgroundColor=none;" parent="GqP4DYXTLEp6i3isbO8n-1000" vertex="1">
          <mxGeometry x="150" width="100" height="30" as="geometry">
            <mxRectangle width="100" height="30" as="alternateBounds" />
          </mxGeometry>
        </mxCell>
        <mxCell id="GqP4DYXTLEp6i3isbO8n-1004" value="" style="shape=tableRow;horizontal=0;startSize=0;swimlaneHead=0;swimlaneBody=0;fillColor=none;collapsible=0;dropTarget=0;points=[[0,0.5],[1,0.5]];portConstraint=eastwest;top=0;left=0;right=0;bottom=0;strokeColor=#788AA3;fontColor=#46495D;rounded=1;labelBackgroundColor=none;" parent="GqP4DYXTLEp6i3isbO8n-999" vertex="1">
          <mxGeometry y="60" width="250" height="30" as="geometry" />
        </mxCell>
        <mxCell id="GqP4DYXTLEp6i3isbO8n-1005" value="FK" style="shape=partialRectangle;connectable=0;fillColor=none;top=0;left=0;bottom=0;right=0;editable=1;overflow=hidden;whiteSpace=wrap;html=1;strokeColor=#788AA3;fontColor=#46495D;rounded=1;labelBackgroundColor=none;" parent="GqP4DYXTLEp6i3isbO8n-1004" vertex="1">
          <mxGeometry width="30" height="30" as="geometry">
            <mxRectangle width="30" height="30" as="alternateBounds" />
          </mxGeometry>
        </mxCell>
        <mxCell id="GqP4DYXTLEp6i3isbO8n-1006" value="home_team_id" style="shape=partialRectangle;connectable=0;fillColor=none;top=0;left=0;bottom=0;right=0;align=left;spacingLeft=6;overflow=hidden;whiteSpace=wrap;html=1;strokeColor=#788AA3;fontColor=#46495D;rounded=1;labelBackgroundColor=none;" parent="GqP4DYXTLEp6i3isbO8n-1004" vertex="1">
          <mxGeometry x="30" width="120" height="30" as="geometry">
            <mxRectangle width="120" height="30" as="alternateBounds" />
          </mxGeometry>
        </mxCell>
        <mxCell id="GqP4DYXTLEp6i3isbO8n-1007" value="INT" style="shape=partialRectangle;connectable=0;fillColor=none;top=0;left=0;bottom=0;right=0;align=left;spacingLeft=6;overflow=hidden;whiteSpace=wrap;html=1;strokeColor=#788AA3;fontColor=#46495D;rounded=1;labelBackgroundColor=none;" parent="GqP4DYXTLEp6i3isbO8n-1004" vertex="1">
          <mxGeometry x="150" width="100" height="30" as="geometry">
            <mxRectangle width="100" height="30" as="alternateBounds" />
          </mxGeometry>
        </mxCell>
        <mxCell id="GqP4DYXTLEp6i3isbO8n-1008" value="" style="shape=tableRow;horizontal=0;startSize=0;swimlaneHead=0;swimlaneBody=0;fillColor=none;collapsible=0;dropTarget=0;points=[[0,0.5],[1,0.5]];portConstraint=eastwest;top=0;left=0;right=0;bottom=0;strokeColor=#788AA3;fontColor=#46495D;rounded=1;labelBackgroundColor=none;" parent="GqP4DYXTLEp6i3isbO8n-999" vertex="1">
          <mxGeometry y="90" width="250" height="30" as="geometry" />
        </mxCell>
        <mxCell id="GqP4DYXTLEp6i3isbO8n-1009" value="FK" style="shape=partialRectangle;connectable=0;fillColor=none;top=0;left=0;bottom=0;right=0;editable=1;overflow=hidden;whiteSpace=wrap;html=1;strokeColor=#788AA3;fontColor=#46495D;rounded=1;labelBackgroundColor=none;" parent="GqP4DYXTLEp6i3isbO8n-1008" vertex="1">
          <mxGeometry width="30" height="30" as="geometry">
            <mxRectangle width="30" height="30" as="alternateBounds" />
          </mxGeometry>
        </mxCell>
        <mxCell id="GqP4DYXTLEp6i3isbO8n-1010" value="away_team_id" style="shape=partialRectangle;connectable=0;fillColor=none;top=0;left=0;bottom=0;right=0;align=left;spacingLeft=6;overflow=hidden;whiteSpace=wrap;html=1;strokeColor=#788AA3;fontColor=#46495D;rounded=1;labelBackgroundColor=none;" parent="GqP4DYXTLEp6i3isbO8n-1008" vertex="1">
          <mxGeometry x="30" width="120" height="30" as="geometry">
            <mxRectangle width="120" height="30" as="alternateBounds" />
          </mxGeometry>
        </mxCell>
        <mxCell id="GqP4DYXTLEp6i3isbO8n-1011" value="INT" style="shape=partialRectangle;connectable=0;fillColor=none;top=0;left=0;bottom=0;right=0;align=left;spacingLeft=6;overflow=hidden;whiteSpace=wrap;html=1;strokeColor=#788AA3;fontColor=#46495D;rounded=1;labelBackgroundColor=none;" parent="GqP4DYXTLEp6i3isbO8n-1008" vertex="1">
          <mxGeometry x="150" width="100" height="30" as="geometry">
            <mxRectangle width="100" height="30" as="alternateBounds" />
          </mxGeometry>
        </mxCell>
        <mxCell id="GqP4DYXTLEp6i3isbO8n-1012" style="shape=tableRow;horizontal=0;startSize=0;swimlaneHead=0;swimlaneBody=0;fillColor=none;collapsible=0;dropTarget=0;points=[[0,0.5],[1,0.5]];portConstraint=eastwest;top=0;left=0;right=0;bottom=0;strokeColor=#788AA3;fontColor=#46495D;rounded=1;labelBackgroundColor=none;" parent="GqP4DYXTLEp6i3isbO8n-999" vertex="1">
          <mxGeometry y="120" width="250" height="30" as="geometry" />
        </mxCell>
        <mxCell id="GqP4DYXTLEp6i3isbO8n-1013" style="shape=partialRectangle;connectable=0;fillColor=none;top=0;left=0;bottom=0;right=0;editable=1;overflow=hidden;whiteSpace=wrap;html=1;strokeColor=#788AA3;fontColor=#46495D;rounded=1;labelBackgroundColor=none;" parent="GqP4DYXTLEp6i3isbO8n-1012" vertex="1">
          <mxGeometry width="30" height="30" as="geometry">
            <mxRectangle width="30" height="30" as="alternateBounds" />
          </mxGeometry>
        </mxCell>
        <mxCell id="GqP4DYXTLEp6i3isbO8n-1014" value="home_team_scores" style="shape=partialRectangle;connectable=0;fillColor=none;top=0;left=0;bottom=0;right=0;align=left;spacingLeft=6;overflow=hidden;whiteSpace=wrap;html=1;strokeColor=#788AA3;fontColor=#46495D;rounded=1;labelBackgroundColor=none;" parent="GqP4DYXTLEp6i3isbO8n-1012" vertex="1">
          <mxGeometry x="30" width="120" height="30" as="geometry">
            <mxRectangle width="120" height="30" as="alternateBounds" />
          </mxGeometry>
        </mxCell>
        <mxCell id="GqP4DYXTLEp6i3isbO8n-1015" value="INT" style="shape=partialRectangle;connectable=0;fillColor=none;top=0;left=0;bottom=0;right=0;align=left;spacingLeft=6;overflow=hidden;whiteSpace=wrap;html=1;strokeColor=#788AA3;fontColor=#46495D;rounded=1;labelBackgroundColor=none;" parent="GqP4DYXTLEp6i3isbO8n-1012" vertex="1">
          <mxGeometry x="150" width="100" height="30" as="geometry">
            <mxRectangle width="100" height="30" as="alternateBounds" />
          </mxGeometry>
        </mxCell>
        <mxCell id="GqP4DYXTLEp6i3isbO8n-1016" style="shape=tableRow;horizontal=0;startSize=0;swimlaneHead=0;swimlaneBody=0;fillColor=none;collapsible=0;dropTarget=0;points=[[0,0.5],[1,0.5]];portConstraint=eastwest;top=0;left=0;right=0;bottom=0;strokeColor=#788AA3;fontColor=#46495D;rounded=1;labelBackgroundColor=none;" parent="GqP4DYXTLEp6i3isbO8n-999" vertex="1">
          <mxGeometry y="150" width="250" height="30" as="geometry" />
        </mxCell>
        <mxCell id="GqP4DYXTLEp6i3isbO8n-1017" style="shape=partialRectangle;connectable=0;fillColor=none;top=0;left=0;bottom=0;right=0;editable=1;overflow=hidden;whiteSpace=wrap;html=1;strokeColor=#788AA3;fontColor=#46495D;rounded=1;labelBackgroundColor=none;" parent="GqP4DYXTLEp6i3isbO8n-1016" vertex="1">
          <mxGeometry width="30" height="30" as="geometry">
            <mxRectangle width="30" height="30" as="alternateBounds" />
          </mxGeometry>
        </mxCell>
        <mxCell id="GqP4DYXTLEp6i3isbO8n-1018" value="away_team_score" style="shape=partialRectangle;connectable=0;fillColor=none;top=0;left=0;bottom=0;right=0;align=left;spacingLeft=6;overflow=hidden;whiteSpace=wrap;html=1;strokeColor=#788AA3;fontColor=#46495D;rounded=1;labelBackgroundColor=none;" parent="GqP4DYXTLEp6i3isbO8n-1016" vertex="1">
          <mxGeometry x="30" width="120" height="30" as="geometry">
            <mxRectangle width="120" height="30" as="alternateBounds" />
          </mxGeometry>
        </mxCell>
        <mxCell id="GqP4DYXTLEp6i3isbO8n-1019" value="INT" style="shape=partialRectangle;connectable=0;fillColor=none;top=0;left=0;bottom=0;right=0;align=left;spacingLeft=6;overflow=hidden;whiteSpace=wrap;html=1;strokeColor=#788AA3;fontColor=#46495D;rounded=1;labelBackgroundColor=none;" parent="GqP4DYXTLEp6i3isbO8n-1016" vertex="1">
          <mxGeometry x="150" width="100" height="30" as="geometry">
            <mxRectangle width="100" height="30" as="alternateBounds" />
          </mxGeometry>
        </mxCell>
        <mxCell id="GqP4DYXTLEp6i3isbO8n-1020" value="" style="shape=tableRow;horizontal=0;startSize=0;swimlaneHead=0;swimlaneBody=0;fillColor=none;collapsible=0;dropTarget=0;points=[[0,0.5],[1,0.5]];portConstraint=eastwest;top=0;left=0;right=0;bottom=0;strokeColor=#788AA3;fontColor=#46495D;rounded=1;labelBackgroundColor=none;" parent="GqP4DYXTLEp6i3isbO8n-999" vertex="1">
          <mxGeometry y="180" width="250" height="30" as="geometry" />
        </mxCell>
        <mxCell id="GqP4DYXTLEp6i3isbO8n-1021" value="FK" style="shape=partialRectangle;connectable=0;fillColor=none;top=0;left=0;bottom=0;right=0;editable=1;overflow=hidden;whiteSpace=wrap;html=1;strokeColor=#788AA3;fontColor=#46495D;rounded=1;labelBackgroundColor=none;" parent="GqP4DYXTLEp6i3isbO8n-1020" vertex="1">
          <mxGeometry width="30" height="30" as="geometry">
            <mxRectangle width="30" height="30" as="alternateBounds" />
          </mxGeometry>
        </mxCell>
        <mxCell id="GqP4DYXTLEp6i3isbO8n-1022" value="stadium_id" style="shape=partialRectangle;connectable=0;fillColor=none;top=0;left=0;bottom=0;right=0;align=left;spacingLeft=6;overflow=hidden;whiteSpace=wrap;html=1;strokeColor=#788AA3;fontColor=#46495D;rounded=1;labelBackgroundColor=none;" parent="GqP4DYXTLEp6i3isbO8n-1020" vertex="1">
          <mxGeometry x="30" width="120" height="30" as="geometry">
            <mxRectangle width="120" height="30" as="alternateBounds" />
          </mxGeometry>
        </mxCell>
        <mxCell id="GqP4DYXTLEp6i3isbO8n-1023" value="INT" style="shape=partialRectangle;connectable=0;fillColor=none;top=0;left=0;bottom=0;right=0;align=left;spacingLeft=6;overflow=hidden;whiteSpace=wrap;html=1;strokeColor=#788AA3;fontColor=#46495D;rounded=1;labelBackgroundColor=none;" parent="GqP4DYXTLEp6i3isbO8n-1020" vertex="1">
          <mxGeometry x="150" width="100" height="30" as="geometry">
            <mxRectangle width="100" height="30" as="alternateBounds" />
          </mxGeometry>
        </mxCell>
        <mxCell id="GqP4DYXTLEp6i3isbO8n-1028" style="shape=tableRow;horizontal=0;startSize=0;swimlaneHead=0;swimlaneBody=0;fillColor=none;collapsible=0;dropTarget=0;points=[[0,0.5],[1,0.5]];portConstraint=eastwest;top=0;left=0;right=0;bottom=0;strokeColor=#788AA3;fontColor=#46495D;rounded=1;labelBackgroundColor=none;" parent="GqP4DYXTLEp6i3isbO8n-999" vertex="1">
          <mxGeometry y="210" width="250" height="30" as="geometry" />
        </mxCell>
        <mxCell id="GqP4DYXTLEp6i3isbO8n-1029" style="shape=partialRectangle;connectable=0;fillColor=none;top=0;left=0;bottom=0;right=0;editable=1;overflow=hidden;whiteSpace=wrap;html=1;strokeColor=#788AA3;fontColor=#46495D;rounded=1;labelBackgroundColor=none;" parent="GqP4DYXTLEp6i3isbO8n-1028" vertex="1">
          <mxGeometry width="30" height="30" as="geometry">
            <mxRectangle width="30" height="30" as="alternateBounds" />
          </mxGeometry>
        </mxCell>
        <mxCell id="GqP4DYXTLEp6i3isbO8n-1030" value="kickoff" style="shape=partialRectangle;connectable=0;fillColor=none;top=0;left=0;bottom=0;right=0;align=left;spacingLeft=6;overflow=hidden;whiteSpace=wrap;html=1;strokeColor=#788AA3;fontColor=#46495D;rounded=1;labelBackgroundColor=none;" parent="GqP4DYXTLEp6i3isbO8n-1028" vertex="1">
          <mxGeometry x="30" width="120" height="30" as="geometry">
            <mxRectangle width="120" height="30" as="alternateBounds" />
          </mxGeometry>
        </mxCell>
        <mxCell id="GqP4DYXTLEp6i3isbO8n-1031" value="DATETIME" style="shape=partialRectangle;connectable=0;fillColor=none;top=0;left=0;bottom=0;right=0;align=left;spacingLeft=6;overflow=hidden;whiteSpace=wrap;html=1;strokeColor=#788AA3;fontColor=#46495D;rounded=1;labelBackgroundColor=none;" parent="GqP4DYXTLEp6i3isbO8n-1028" vertex="1">
          <mxGeometry x="150" width="100" height="30" as="geometry">
            <mxRectangle width="100" height="30" as="alternateBounds" />
          </mxGeometry>
        </mxCell>
        <mxCell id="rrCnXcVEUIWHnGsj0H_f-1" style="shape=tableRow;horizontal=0;startSize=0;swimlaneHead=0;swimlaneBody=0;fillColor=none;collapsible=0;dropTarget=0;points=[[0,0.5],[1,0.5]];portConstraint=eastwest;top=0;left=0;right=0;bottom=0;strokeColor=#788AA3;fontColor=#46495D;rounded=1;labelBackgroundColor=none;" parent="GqP4DYXTLEp6i3isbO8n-999" vertex="1">
          <mxGeometry y="240" width="250" height="30" as="geometry" />
        </mxCell>
        <mxCell id="rrCnXcVEUIWHnGsj0H_f-2" style="shape=partialRectangle;connectable=0;fillColor=none;top=0;left=0;bottom=0;right=0;editable=1;overflow=hidden;whiteSpace=wrap;html=1;strokeColor=#788AA3;fontColor=#46495D;rounded=1;labelBackgroundColor=none;" parent="rrCnXcVEUIWHnGsj0H_f-1" vertex="1">
          <mxGeometry width="30" height="30" as="geometry">
            <mxRectangle width="30" height="30" as="alternateBounds" />
          </mxGeometry>
        </mxCell>
        <mxCell id="rrCnXcVEUIWHnGsj0H_f-3" value="season" style="shape=partialRectangle;connectable=0;fillColor=none;top=0;left=0;bottom=0;right=0;align=left;spacingLeft=6;overflow=hidden;whiteSpace=wrap;html=1;strokeColor=#788AA3;fontColor=#46495D;rounded=1;labelBackgroundColor=none;" parent="rrCnXcVEUIWHnGsj0H_f-1" vertex="1">
          <mxGeometry x="30" width="120" height="30" as="geometry">
            <mxRectangle width="120" height="30" as="alternateBounds" />
          </mxGeometry>
        </mxCell>
        <mxCell id="rrCnXcVEUIWHnGsj0H_f-4" value="CHAR(7)" style="shape=partialRectangle;connectable=0;fillColor=none;top=0;left=0;bottom=0;right=0;align=left;spacingLeft=6;overflow=hidden;whiteSpace=wrap;html=1;strokeColor=#788AA3;fontColor=#46495D;rounded=1;labelBackgroundColor=none;" parent="rrCnXcVEUIWHnGsj0H_f-1" vertex="1">
          <mxGeometry x="150" width="100" height="30" as="geometry">
            <mxRectangle width="100" height="30" as="alternateBounds" />
          </mxGeometry>
        </mxCell>
        <mxCell id="GqP4DYXTLEp6i3isbO8n-1032" style="shape=tableRow;horizontal=0;startSize=0;swimlaneHead=0;swimlaneBody=0;fillColor=none;collapsible=0;dropTarget=0;points=[[0,0.5],[1,0.5]];portConstraint=eastwest;top=0;left=0;right=0;bottom=0;strokeColor=#788AA3;fontColor=#46495D;rounded=1;labelBackgroundColor=none;" parent="GqP4DYXTLEp6i3isbO8n-999" vertex="1">
          <mxGeometry y="270" width="250" height="30" as="geometry" />
        </mxCell>
        <mxCell id="GqP4DYXTLEp6i3isbO8n-1033" value="FK" style="shape=partialRectangle;connectable=0;fillColor=none;top=0;left=0;bottom=0;right=0;editable=1;overflow=hidden;whiteSpace=wrap;html=1;strokeColor=#788AA3;fontColor=#46495D;rounded=1;labelBackgroundColor=none;" parent="GqP4DYXTLEp6i3isbO8n-1032" vertex="1">
          <mxGeometry width="30" height="30" as="geometry">
            <mxRectangle width="30" height="30" as="alternateBounds" />
          </mxGeometry>
        </mxCell>
        <mxCell id="GqP4DYXTLEp6i3isbO8n-1034" value="main_referee_id" style="shape=partialRectangle;connectable=0;fillColor=none;top=0;left=0;bottom=0;right=0;align=left;spacingLeft=6;overflow=hidden;whiteSpace=wrap;html=1;strokeColor=#788AA3;fontColor=#46495D;rounded=1;labelBackgroundColor=none;" parent="GqP4DYXTLEp6i3isbO8n-1032" vertex="1">
          <mxGeometry x="30" width="120" height="30" as="geometry">
            <mxRectangle width="120" height="30" as="alternateBounds" />
          </mxGeometry>
        </mxCell>
        <mxCell id="GqP4DYXTLEp6i3isbO8n-1035" value="INT" style="shape=partialRectangle;connectable=0;fillColor=none;top=0;left=0;bottom=0;right=0;align=left;spacingLeft=6;overflow=hidden;whiteSpace=wrap;html=1;strokeColor=#788AA3;fontColor=#46495D;rounded=1;labelBackgroundColor=none;" parent="GqP4DYXTLEp6i3isbO8n-1032" vertex="1">
          <mxGeometry x="150" width="100" height="30" as="geometry">
            <mxRectangle width="100" height="30" as="alternateBounds" />
          </mxGeometry>
        </mxCell>
        <mxCell id="GqP4DYXTLEp6i3isbO8n-1036" style="shape=tableRow;horizontal=0;startSize=0;swimlaneHead=0;swimlaneBody=0;fillColor=none;collapsible=0;dropTarget=0;points=[[0,0.5],[1,0.5]];portConstraint=eastwest;top=0;left=0;right=0;bottom=0;strokeColor=#788AA3;fontColor=#46495D;rounded=1;labelBackgroundColor=none;" parent="GqP4DYXTLEp6i3isbO8n-999" vertex="1">
          <mxGeometry y="300" width="250" height="30" as="geometry" />
        </mxCell>
        <mxCell id="GqP4DYXTLEp6i3isbO8n-1037" style="shape=partialRectangle;connectable=0;fillColor=none;top=0;left=0;bottom=0;right=0;editable=1;overflow=hidden;whiteSpace=wrap;html=1;strokeColor=#788AA3;fontColor=#46495D;rounded=1;labelBackgroundColor=none;" parent="GqP4DYXTLEp6i3isbO8n-1036" vertex="1">
          <mxGeometry width="30" height="30" as="geometry">
            <mxRectangle width="30" height="30" as="alternateBounds" />
          </mxGeometry>
        </mxCell>
        <mxCell id="GqP4DYXTLEp6i3isbO8n-1038" value="attendance" style="shape=partialRectangle;connectable=0;fillColor=none;top=0;left=0;bottom=0;right=0;align=left;spacingLeft=6;overflow=hidden;whiteSpace=wrap;html=1;strokeColor=#788AA3;fontColor=#46495D;rounded=1;labelBackgroundColor=none;" parent="GqP4DYXTLEp6i3isbO8n-1036" vertex="1">
          <mxGeometry x="30" width="120" height="30" as="geometry">
            <mxRectangle width="120" height="30" as="alternateBounds" />
          </mxGeometry>
        </mxCell>
        <mxCell id="GqP4DYXTLEp6i3isbO8n-1039" value="INT" style="shape=partialRectangle;connectable=0;fillColor=none;top=0;left=0;bottom=0;right=0;align=left;spacingLeft=6;overflow=hidden;whiteSpace=wrap;html=1;strokeColor=#788AA3;fontColor=#46495D;rounded=1;labelBackgroundColor=none;" parent="GqP4DYXTLEp6i3isbO8n-1036" vertex="1">
          <mxGeometry x="150" width="100" height="30" as="geometry">
            <mxRectangle width="100" height="30" as="alternateBounds" />
          </mxGeometry>
        </mxCell>
        <mxCell id="GqP4DYXTLEp6i3isbO8n-1040" value="players" style="shape=table;startSize=30;container=1;collapsible=1;childLayout=tableLayout;fixedRows=1;rowLines=0;fontStyle=1;align=center;resizeLast=1;html=1;strokeColor=#788AA3;fontColor=#46495D;fillColor=#B2C9AB;rounded=1;labelBackgroundColor=none;" parent="1" vertex="1">
          <mxGeometry x="65" y="363" width="250" height="390" as="geometry" />
        </mxCell>
        <mxCell id="GqP4DYXTLEp6i3isbO8n-1041" value="" style="shape=tableRow;horizontal=0;startSize=0;swimlaneHead=0;swimlaneBody=0;fillColor=none;collapsible=0;dropTarget=0;points=[[0,0.5],[1,0.5]];portConstraint=eastwest;top=0;left=0;right=0;bottom=1;strokeColor=#788AA3;fontColor=#46495D;rounded=1;labelBackgroundColor=none;" parent="GqP4DYXTLEp6i3isbO8n-1040" vertex="1">
          <mxGeometry y="30" width="250" height="30" as="geometry" />
        </mxCell>
        <mxCell id="GqP4DYXTLEp6i3isbO8n-1042" value="PK" style="shape=partialRectangle;connectable=0;fillColor=none;top=0;left=0;bottom=0;right=0;fontStyle=1;overflow=hidden;whiteSpace=wrap;html=1;strokeColor=#788AA3;fontColor=#46495D;rounded=1;labelBackgroundColor=none;" parent="GqP4DYXTLEp6i3isbO8n-1041" vertex="1">
          <mxGeometry width="30" height="30" as="geometry">
            <mxRectangle width="30" height="30" as="alternateBounds" />
          </mxGeometry>
        </mxCell>
        <mxCell id="GqP4DYXTLEp6i3isbO8n-1043" value="player_id" style="shape=partialRectangle;connectable=0;fillColor=none;top=0;left=0;bottom=0;right=0;align=left;spacingLeft=6;fontStyle=1;overflow=hidden;whiteSpace=wrap;html=1;strokeColor=#788AA3;fontColor=#46495D;rounded=1;labelBackgroundColor=none;" parent="GqP4DYXTLEp6i3isbO8n-1041" vertex="1">
          <mxGeometry x="30" width="120" height="30" as="geometry">
            <mxRectangle width="120" height="30" as="alternateBounds" />
          </mxGeometry>
        </mxCell>
        <mxCell id="GqP4DYXTLEp6i3isbO8n-1044" value="INT" style="shape=partialRectangle;connectable=0;fillColor=none;top=0;left=0;bottom=0;right=0;align=left;spacingLeft=6;fontStyle=1;overflow=hidden;whiteSpace=wrap;html=1;strokeColor=#788AA3;fontColor=#46495D;rounded=1;labelBackgroundColor=none;" parent="GqP4DYXTLEp6i3isbO8n-1041" vertex="1">
          <mxGeometry x="150" width="100" height="30" as="geometry">
            <mxRectangle width="100" height="30" as="alternateBounds" />
          </mxGeometry>
        </mxCell>
        <mxCell id="GqP4DYXTLEp6i3isbO8n-1045" value="" style="shape=tableRow;horizontal=0;startSize=0;swimlaneHead=0;swimlaneBody=0;fillColor=none;collapsible=0;dropTarget=0;points=[[0,0.5],[1,0.5]];portConstraint=eastwest;top=0;left=0;right=0;bottom=0;strokeColor=#788AA3;fontColor=#46495D;rounded=1;labelBackgroundColor=none;" parent="GqP4DYXTLEp6i3isbO8n-1040" vertex="1">
          <mxGeometry y="60" width="250" height="30" as="geometry" />
        </mxCell>
        <mxCell id="GqP4DYXTLEp6i3isbO8n-1046" value="" style="shape=partialRectangle;connectable=0;fillColor=none;top=0;left=0;bottom=0;right=0;editable=1;overflow=hidden;whiteSpace=wrap;html=1;strokeColor=#788AA3;fontColor=#46495D;rounded=1;labelBackgroundColor=none;" parent="GqP4DYXTLEp6i3isbO8n-1045" vertex="1">
          <mxGeometry width="30" height="30" as="geometry">
            <mxRectangle width="30" height="30" as="alternateBounds" />
          </mxGeometry>
        </mxCell>
        <mxCell id="GqP4DYXTLEp6i3isbO8n-1047" value="first_name" style="shape=partialRectangle;connectable=0;fillColor=none;top=0;left=0;bottom=0;right=0;align=left;spacingLeft=6;overflow=hidden;whiteSpace=wrap;html=1;strokeColor=#788AA3;fontColor=#46495D;rounded=1;labelBackgroundColor=none;" parent="GqP4DYXTLEp6i3isbO8n-1045" vertex="1">
          <mxGeometry x="30" width="120" height="30" as="geometry">
            <mxRectangle width="120" height="30" as="alternateBounds" />
          </mxGeometry>
        </mxCell>
        <mxCell id="GqP4DYXTLEp6i3isbO8n-1048" value="NVARCHAR(50)" style="shape=partialRectangle;connectable=0;fillColor=none;top=0;left=0;bottom=0;right=0;align=left;spacingLeft=6;overflow=hidden;whiteSpace=wrap;html=1;strokeColor=#788AA3;fontColor=#46495D;rounded=1;labelBackgroundColor=none;" parent="GqP4DYXTLEp6i3isbO8n-1045" vertex="1">
          <mxGeometry x="150" width="100" height="30" as="geometry">
            <mxRectangle width="100" height="30" as="alternateBounds" />
          </mxGeometry>
        </mxCell>
        <mxCell id="GqP4DYXTLEp6i3isbO8n-1049" style="shape=tableRow;horizontal=0;startSize=0;swimlaneHead=0;swimlaneBody=0;fillColor=none;collapsible=0;dropTarget=0;points=[[0,0.5],[1,0.5]];portConstraint=eastwest;top=0;left=0;right=0;bottom=0;strokeColor=#788AA3;fontColor=#46495D;rounded=1;labelBackgroundColor=none;" parent="GqP4DYXTLEp6i3isbO8n-1040" vertex="1">
          <mxGeometry y="90" width="250" height="30" as="geometry" />
        </mxCell>
        <mxCell id="GqP4DYXTLEp6i3isbO8n-1050" style="shape=partialRectangle;connectable=0;fillColor=none;top=0;left=0;bottom=0;right=0;editable=1;overflow=hidden;whiteSpace=wrap;html=1;strokeColor=#788AA3;fontColor=#46495D;rounded=1;labelBackgroundColor=none;" parent="GqP4DYXTLEp6i3isbO8n-1049" vertex="1">
          <mxGeometry width="30" height="30" as="geometry">
            <mxRectangle width="30" height="30" as="alternateBounds" />
          </mxGeometry>
        </mxCell>
        <mxCell id="GqP4DYXTLEp6i3isbO8n-1051" value="last_name" style="shape=partialRectangle;connectable=0;fillColor=none;top=0;left=0;bottom=0;right=0;align=left;spacingLeft=6;overflow=hidden;whiteSpace=wrap;html=1;strokeColor=#788AA3;fontColor=#46495D;rounded=1;labelBackgroundColor=none;" parent="GqP4DYXTLEp6i3isbO8n-1049" vertex="1">
          <mxGeometry x="30" width="120" height="30" as="geometry">
            <mxRectangle width="120" height="30" as="alternateBounds" />
          </mxGeometry>
        </mxCell>
        <mxCell id="GqP4DYXTLEp6i3isbO8n-1052" value="NVARCHAR(50)" style="shape=partialRectangle;connectable=0;fillColor=none;top=0;left=0;bottom=0;right=0;align=left;spacingLeft=6;overflow=hidden;whiteSpace=wrap;html=1;strokeColor=#788AA3;fontColor=#46495D;rounded=1;labelBackgroundColor=none;" parent="GqP4DYXTLEp6i3isbO8n-1049" vertex="1">
          <mxGeometry x="150" width="100" height="30" as="geometry">
            <mxRectangle width="100" height="30" as="alternateBounds" />
          </mxGeometry>
        </mxCell>
        <mxCell id="GqP4DYXTLEp6i3isbO8n-1053" style="shape=tableRow;horizontal=0;startSize=0;swimlaneHead=0;swimlaneBody=0;fillColor=none;collapsible=0;dropTarget=0;points=[[0,0.5],[1,0.5]];portConstraint=eastwest;top=0;left=0;right=0;bottom=0;strokeColor=#788AA3;fontColor=#46495D;rounded=1;labelBackgroundColor=none;verticalAlign=middle;" parent="GqP4DYXTLEp6i3isbO8n-1040" vertex="1">
          <mxGeometry y="120" width="250" height="30" as="geometry" />
        </mxCell>
        <mxCell id="GqP4DYXTLEp6i3isbO8n-1054" style="shape=partialRectangle;connectable=0;fillColor=none;top=0;left=0;bottom=0;right=0;editable=1;overflow=hidden;whiteSpace=wrap;html=1;strokeColor=#788AA3;fontColor=#46495D;rounded=1;labelBackgroundColor=none;" parent="GqP4DYXTLEp6i3isbO8n-1053" vertex="1">
          <mxGeometry width="30" height="30" as="geometry">
            <mxRectangle width="30" height="30" as="alternateBounds" />
          </mxGeometry>
        </mxCell>
        <mxCell id="GqP4DYXTLEp6i3isbO8n-1055" value="position" style="shape=partialRectangle;connectable=0;fillColor=none;top=0;left=0;bottom=0;right=0;align=left;spacingLeft=6;overflow=hidden;whiteSpace=wrap;html=1;strokeColor=#788AA3;fontColor=#46495D;rounded=1;labelBackgroundColor=none;" parent="GqP4DYXTLEp6i3isbO8n-1053" vertex="1">
          <mxGeometry x="30" width="120" height="30" as="geometry">
            <mxRectangle width="120" height="30" as="alternateBounds" />
          </mxGeometry>
        </mxCell>
        <mxCell id="GqP4DYXTLEp6i3isbO8n-1056" value="&lt;span style=&quot;color: rgb(70, 73, 93); font-family: Helvetica; font-size: 12px; font-style: normal; font-variant-ligatures: normal; font-variant-caps: normal; font-weight: 400; letter-spacing: normal; orphans: 2; text-align: left; text-indent: 0px; text-transform: none; widows: 2; word-spacing: 0px; -webkit-text-stroke-width: 0px; background-color: rgb(251, 251, 251); text-decoration-thickness: initial; text-decoration-style: initial; text-decoration-color: initial; float: none; display: inline !important;&quot;&gt;VARCHAR(50)&lt;/span&gt;" style="shape=partialRectangle;connectable=0;fillColor=none;top=0;left=0;bottom=0;right=0;align=left;spacingLeft=6;overflow=hidden;whiteSpace=wrap;html=1;strokeColor=#788AA3;fontColor=#46495D;rounded=1;labelBackgroundColor=none;verticalAlign=middle;" parent="GqP4DYXTLEp6i3isbO8n-1053" vertex="1">
          <mxGeometry x="150" width="100" height="30" as="geometry">
            <mxRectangle width="100" height="30" as="alternateBounds" />
          </mxGeometry>
        </mxCell>
        <mxCell id="GqP4DYXTLEp6i3isbO8n-1057" value="" style="shape=tableRow;horizontal=0;startSize=0;swimlaneHead=0;swimlaneBody=0;fillColor=none;collapsible=0;dropTarget=0;points=[[0,0.5],[1,0.5]];portConstraint=eastwest;top=0;left=0;right=0;bottom=0;strokeColor=#788AA3;fontColor=#46495D;rounded=1;labelBackgroundColor=none;" parent="GqP4DYXTLEp6i3isbO8n-1040" vertex="1">
          <mxGeometry y="150" width="250" height="30" as="geometry" />
        </mxCell>
        <mxCell id="GqP4DYXTLEp6i3isbO8n-1058" value="" style="shape=partialRectangle;connectable=0;fillColor=none;top=0;left=0;bottom=0;right=0;editable=1;overflow=hidden;whiteSpace=wrap;html=1;strokeColor=#788AA3;fontColor=#46495D;rounded=1;labelBackgroundColor=none;" parent="GqP4DYXTLEp6i3isbO8n-1057" vertex="1">
          <mxGeometry width="30" height="30" as="geometry">
            <mxRectangle width="30" height="30" as="alternateBounds" />
          </mxGeometry>
        </mxCell>
        <mxCell id="GqP4DYXTLEp6i3isbO8n-1059" value="country" style="shape=partialRectangle;connectable=0;fillColor=none;top=0;left=0;bottom=0;right=0;align=left;spacingLeft=6;overflow=hidden;whiteSpace=wrap;html=1;strokeColor=#788AA3;fontColor=#46495D;rounded=1;labelBackgroundColor=none;" parent="GqP4DYXTLEp6i3isbO8n-1057" vertex="1">
          <mxGeometry x="30" width="120" height="30" as="geometry">
            <mxRectangle width="120" height="30" as="alternateBounds" />
          </mxGeometry>
        </mxCell>
        <mxCell id="GqP4DYXTLEp6i3isbO8n-1060" value="VARCHAR(50)" style="shape=partialRectangle;connectable=0;fillColor=none;top=0;left=0;bottom=0;right=0;align=left;spacingLeft=6;overflow=hidden;whiteSpace=wrap;html=1;strokeColor=#788AA3;fontColor=#46495D;rounded=1;labelBackgroundColor=none;" parent="GqP4DYXTLEp6i3isbO8n-1057" vertex="1">
          <mxGeometry x="150" width="100" height="30" as="geometry">
            <mxRectangle width="100" height="30" as="alternateBounds" />
          </mxGeometry>
        </mxCell>
        <mxCell id="GqP4DYXTLEp6i3isbO8n-1061" style="shape=tableRow;horizontal=0;startSize=0;swimlaneHead=0;swimlaneBody=0;fillColor=none;collapsible=0;dropTarget=0;points=[[0,0.5],[1,0.5]];portConstraint=eastwest;top=0;left=0;right=0;bottom=0;strokeColor=#788AA3;fontColor=#46495D;rounded=1;labelBackgroundColor=none;" parent="GqP4DYXTLEp6i3isbO8n-1040" vertex="1">
          <mxGeometry y="180" width="250" height="30" as="geometry" />
        </mxCell>
        <mxCell id="GqP4DYXTLEp6i3isbO8n-1062" style="shape=partialRectangle;connectable=0;fillColor=none;top=0;left=0;bottom=0;right=0;editable=1;overflow=hidden;whiteSpace=wrap;html=1;strokeColor=#788AA3;fontColor=#46495D;rounded=1;labelBackgroundColor=none;" parent="GqP4DYXTLEp6i3isbO8n-1061" vertex="1">
          <mxGeometry width="30" height="30" as="geometry">
            <mxRectangle width="30" height="30" as="alternateBounds" />
          </mxGeometry>
        </mxCell>
        <mxCell id="GqP4DYXTLEp6i3isbO8n-1063" value="birth" style="shape=partialRectangle;connectable=0;fillColor=none;top=0;left=0;bottom=0;right=0;align=left;spacingLeft=6;overflow=hidden;whiteSpace=wrap;html=1;strokeColor=#788AA3;fontColor=#46495D;rounded=1;labelBackgroundColor=none;" parent="GqP4DYXTLEp6i3isbO8n-1061" vertex="1">
          <mxGeometry x="30" width="120" height="30" as="geometry">
            <mxRectangle width="120" height="30" as="alternateBounds" />
          </mxGeometry>
        </mxCell>
        <mxCell id="GqP4DYXTLEp6i3isbO8n-1064" value="DATE" style="shape=partialRectangle;connectable=0;fillColor=none;top=0;left=0;bottom=0;right=0;align=left;spacingLeft=6;overflow=hidden;whiteSpace=wrap;html=1;strokeColor=#788AA3;fontColor=#46495D;rounded=1;labelBackgroundColor=none;" parent="GqP4DYXTLEp6i3isbO8n-1061" vertex="1">
          <mxGeometry x="150" width="100" height="30" as="geometry">
            <mxRectangle width="100" height="30" as="alternateBounds" />
          </mxGeometry>
        </mxCell>
        <mxCell id="GqP4DYXTLEp6i3isbO8n-1065" style="shape=tableRow;horizontal=0;startSize=0;swimlaneHead=0;swimlaneBody=0;fillColor=none;collapsible=0;dropTarget=0;points=[[0,0.5],[1,0.5]];portConstraint=eastwest;top=0;left=0;right=0;bottom=0;strokeColor=#788AA3;fontColor=#46495D;rounded=1;labelBackgroundColor=none;" parent="GqP4DYXTLEp6i3isbO8n-1040" vertex="1">
          <mxGeometry y="210" width="250" height="30" as="geometry" />
        </mxCell>
        <mxCell id="GqP4DYXTLEp6i3isbO8n-1066" style="shape=partialRectangle;connectable=0;fillColor=none;top=0;left=0;bottom=0;right=0;editable=1;overflow=hidden;whiteSpace=wrap;html=1;strokeColor=#788AA3;fontColor=#46495D;rounded=1;labelBackgroundColor=none;" parent="GqP4DYXTLEp6i3isbO8n-1065" vertex="1">
          <mxGeometry width="30" height="30" as="geometry">
            <mxRectangle width="30" height="30" as="alternateBounds" />
          </mxGeometry>
        </mxCell>
        <mxCell id="GqP4DYXTLEp6i3isbO8n-1067" value="appearances" style="shape=partialRectangle;connectable=0;fillColor=none;top=0;left=0;bottom=0;right=0;align=left;spacingLeft=6;overflow=hidden;whiteSpace=wrap;html=1;strokeColor=#788AA3;fontColor=#46495D;rounded=1;labelBackgroundColor=none;" parent="GqP4DYXTLEp6i3isbO8n-1065" vertex="1">
          <mxGeometry x="30" width="120" height="30" as="geometry">
            <mxRectangle width="120" height="30" as="alternateBounds" />
          </mxGeometry>
        </mxCell>
        <mxCell id="GqP4DYXTLEp6i3isbO8n-1068" value="INT" style="shape=partialRectangle;connectable=0;fillColor=none;top=0;left=0;bottom=0;right=0;align=left;spacingLeft=6;overflow=hidden;whiteSpace=wrap;html=1;strokeColor=#788AA3;fontColor=#46495D;rounded=1;labelBackgroundColor=none;" parent="GqP4DYXTLEp6i3isbO8n-1065" vertex="1">
          <mxGeometry x="150" width="100" height="30" as="geometry">
            <mxRectangle width="100" height="30" as="alternateBounds" />
          </mxGeometry>
        </mxCell>
        <mxCell id="XSGWQffvnAwsiU-Vtgd5-1" style="shape=tableRow;horizontal=0;startSize=0;swimlaneHead=0;swimlaneBody=0;fillColor=none;collapsible=0;dropTarget=0;points=[[0,0.5],[1,0.5]];portConstraint=eastwest;top=0;left=0;right=0;bottom=0;strokeColor=#788AA3;fontColor=#46495D;rounded=1;labelBackgroundColor=none;" parent="GqP4DYXTLEp6i3isbO8n-1040" vertex="1">
          <mxGeometry y="240" width="250" height="30" as="geometry" />
        </mxCell>
        <mxCell id="XSGWQffvnAwsiU-Vtgd5-2" style="shape=partialRectangle;connectable=0;fillColor=none;top=0;left=0;bottom=0;right=0;editable=1;overflow=hidden;whiteSpace=wrap;html=1;strokeColor=#788AA3;fontColor=#46495D;rounded=1;labelBackgroundColor=none;" parent="XSGWQffvnAwsiU-Vtgd5-1" vertex="1">
          <mxGeometry width="30" height="30" as="geometry">
            <mxRectangle width="30" height="30" as="alternateBounds" />
          </mxGeometry>
        </mxCell>
        <mxCell id="XSGWQffvnAwsiU-Vtgd5-3" value="clean_sheets" style="shape=partialRectangle;connectable=0;fillColor=none;top=0;left=0;bottom=0;right=0;align=left;spacingLeft=6;overflow=hidden;whiteSpace=wrap;html=1;strokeColor=#788AA3;fontColor=#46495D;rounded=1;labelBackgroundColor=none;" parent="XSGWQffvnAwsiU-Vtgd5-1" vertex="1">
          <mxGeometry x="30" width="120" height="30" as="geometry">
            <mxRectangle width="120" height="30" as="alternateBounds" />
          </mxGeometry>
        </mxCell>
        <mxCell id="XSGWQffvnAwsiU-Vtgd5-4" value="INT" style="shape=partialRectangle;connectable=0;fillColor=none;top=0;left=0;bottom=0;right=0;align=left;spacingLeft=6;overflow=hidden;whiteSpace=wrap;html=1;strokeColor=#788AA3;fontColor=#46495D;rounded=1;labelBackgroundColor=none;" parent="XSGWQffvnAwsiU-Vtgd5-1" vertex="1">
          <mxGeometry x="150" width="100" height="30" as="geometry">
            <mxRectangle width="100" height="30" as="alternateBounds" />
          </mxGeometry>
        </mxCell>
        <mxCell id="GqP4DYXTLEp6i3isbO8n-1069" style="shape=tableRow;horizontal=0;startSize=0;swimlaneHead=0;swimlaneBody=0;fillColor=none;collapsible=0;dropTarget=0;points=[[0,0.5],[1,0.5]];portConstraint=eastwest;top=0;left=0;right=0;bottom=0;strokeColor=#788AA3;fontColor=#46495D;rounded=1;labelBackgroundColor=none;" parent="GqP4DYXTLEp6i3isbO8n-1040" vertex="1">
          <mxGeometry y="270" width="250" height="30" as="geometry" />
        </mxCell>
        <mxCell id="GqP4DYXTLEp6i3isbO8n-1070" style="shape=partialRectangle;connectable=0;fillColor=none;top=0;left=0;bottom=0;right=0;editable=1;overflow=hidden;whiteSpace=wrap;html=1;strokeColor=#788AA3;fontColor=#46495D;rounded=1;labelBackgroundColor=none;" parent="GqP4DYXTLEp6i3isbO8n-1069" vertex="1">
          <mxGeometry width="30" height="30" as="geometry">
            <mxRectangle width="30" height="30" as="alternateBounds" />
          </mxGeometry>
        </mxCell>
        <mxCell id="GqP4DYXTLEp6i3isbO8n-1071" value="goals" style="shape=partialRectangle;connectable=0;fillColor=none;top=0;left=0;bottom=0;right=0;align=left;spacingLeft=6;overflow=hidden;whiteSpace=wrap;html=1;strokeColor=#788AA3;fontColor=#46495D;rounded=1;labelBackgroundColor=none;" parent="GqP4DYXTLEp6i3isbO8n-1069" vertex="1">
          <mxGeometry x="30" width="120" height="30" as="geometry">
            <mxRectangle width="120" height="30" as="alternateBounds" />
          </mxGeometry>
        </mxCell>
        <mxCell id="GqP4DYXTLEp6i3isbO8n-1072" value="INT" style="shape=partialRectangle;connectable=0;fillColor=none;top=0;left=0;bottom=0;right=0;align=left;spacingLeft=6;overflow=hidden;whiteSpace=wrap;html=1;strokeColor=#788AA3;fontColor=#46495D;rounded=1;labelBackgroundColor=none;" parent="GqP4DYXTLEp6i3isbO8n-1069" vertex="1">
          <mxGeometry x="150" width="100" height="30" as="geometry">
            <mxRectangle width="100" height="30" as="alternateBounds" />
          </mxGeometry>
        </mxCell>
        <mxCell id="GqP4DYXTLEp6i3isbO8n-1073" style="shape=tableRow;horizontal=0;startSize=0;swimlaneHead=0;swimlaneBody=0;fillColor=none;collapsible=0;dropTarget=0;points=[[0,0.5],[1,0.5]];portConstraint=eastwest;top=0;left=0;right=0;bottom=0;strokeColor=#788AA3;fontColor=#46495D;rounded=1;labelBackgroundColor=none;" parent="GqP4DYXTLEp6i3isbO8n-1040" vertex="1">
          <mxGeometry y="300" width="250" height="30" as="geometry" />
        </mxCell>
        <mxCell id="GqP4DYXTLEp6i3isbO8n-1074" style="shape=partialRectangle;connectable=0;fillColor=none;top=0;left=0;bottom=0;right=0;editable=1;overflow=hidden;whiteSpace=wrap;html=1;strokeColor=#788AA3;fontColor=#46495D;rounded=1;labelBackgroundColor=none;" parent="GqP4DYXTLEp6i3isbO8n-1073" vertex="1">
          <mxGeometry width="30" height="30" as="geometry">
            <mxRectangle width="30" height="30" as="alternateBounds" />
          </mxGeometry>
        </mxCell>
        <mxCell id="GqP4DYXTLEp6i3isbO8n-1075" value="assists" style="shape=partialRectangle;connectable=0;fillColor=none;top=0;left=0;bottom=0;right=0;align=left;spacingLeft=6;overflow=hidden;whiteSpace=wrap;html=1;strokeColor=#788AA3;fontColor=#46495D;rounded=1;labelBackgroundColor=none;" parent="GqP4DYXTLEp6i3isbO8n-1073" vertex="1">
          <mxGeometry x="30" width="120" height="30" as="geometry">
            <mxRectangle width="120" height="30" as="alternateBounds" />
          </mxGeometry>
        </mxCell>
        <mxCell id="GqP4DYXTLEp6i3isbO8n-1076" value="INT" style="shape=partialRectangle;connectable=0;fillColor=none;top=0;left=0;bottom=0;right=0;align=left;spacingLeft=6;overflow=hidden;whiteSpace=wrap;html=1;strokeColor=#788AA3;fontColor=#46495D;rounded=1;labelBackgroundColor=none;" parent="GqP4DYXTLEp6i3isbO8n-1073" vertex="1">
          <mxGeometry x="150" width="100" height="30" as="geometry">
            <mxRectangle width="100" height="30" as="alternateBounds" />
          </mxGeometry>
        </mxCell>
        <mxCell id="GqP4DYXTLEp6i3isbO8n-1077" style="shape=tableRow;horizontal=0;startSize=0;swimlaneHead=0;swimlaneBody=0;fillColor=none;collapsible=0;dropTarget=0;points=[[0,0.5],[1,0.5]];portConstraint=eastwest;top=0;left=0;right=0;bottom=0;strokeColor=#788AA3;fontColor=#46495D;rounded=1;labelBackgroundColor=none;" parent="GqP4DYXTLEp6i3isbO8n-1040" vertex="1">
          <mxGeometry y="330" width="250" height="30" as="geometry" />
        </mxCell>
        <mxCell id="GqP4DYXTLEp6i3isbO8n-1078" style="shape=partialRectangle;connectable=0;fillColor=none;top=0;left=0;bottom=0;right=0;editable=1;overflow=hidden;whiteSpace=wrap;html=1;strokeColor=#788AA3;fontColor=#46495D;rounded=1;labelBackgroundColor=none;" parent="GqP4DYXTLEp6i3isbO8n-1077" vertex="1">
          <mxGeometry width="30" height="30" as="geometry">
            <mxRectangle width="30" height="30" as="alternateBounds" />
          </mxGeometry>
        </mxCell>
        <mxCell id="GqP4DYXTLEp6i3isbO8n-1079" value="red_cards" style="shape=partialRectangle;connectable=0;fillColor=none;top=0;left=0;bottom=0;right=0;align=left;spacingLeft=6;overflow=hidden;whiteSpace=wrap;html=1;strokeColor=#788AA3;fontColor=#46495D;rounded=1;labelBackgroundColor=none;" parent="GqP4DYXTLEp6i3isbO8n-1077" vertex="1">
          <mxGeometry x="30" width="120" height="30" as="geometry">
            <mxRectangle width="120" height="30" as="alternateBounds" />
          </mxGeometry>
        </mxCell>
        <mxCell id="GqP4DYXTLEp6i3isbO8n-1080" value="INT" style="shape=partialRectangle;connectable=0;fillColor=none;top=0;left=0;bottom=0;right=0;align=left;spacingLeft=6;overflow=hidden;whiteSpace=wrap;html=1;strokeColor=#788AA3;fontColor=#46495D;rounded=1;labelBackgroundColor=none;" parent="GqP4DYXTLEp6i3isbO8n-1077" vertex="1">
          <mxGeometry x="150" width="100" height="30" as="geometry">
            <mxRectangle width="100" height="30" as="alternateBounds" />
          </mxGeometry>
        </mxCell>
        <mxCell id="GqP4DYXTLEp6i3isbO8n-1081" style="shape=tableRow;horizontal=0;startSize=0;swimlaneHead=0;swimlaneBody=0;fillColor=none;collapsible=0;dropTarget=0;points=[[0,0.5],[1,0.5]];portConstraint=eastwest;top=0;left=0;right=0;bottom=0;strokeColor=#788AA3;fontColor=#46495D;rounded=1;labelBackgroundColor=none;" parent="GqP4DYXTLEp6i3isbO8n-1040" vertex="1">
          <mxGeometry y="360" width="250" height="30" as="geometry" />
        </mxCell>
        <mxCell id="GqP4DYXTLEp6i3isbO8n-1082" style="shape=partialRectangle;connectable=0;fillColor=none;top=0;left=0;bottom=0;right=0;editable=1;overflow=hidden;whiteSpace=wrap;html=1;strokeColor=#788AA3;fontColor=#46495D;rounded=1;labelBackgroundColor=none;" parent="GqP4DYXTLEp6i3isbO8n-1081" vertex="1">
          <mxGeometry width="30" height="30" as="geometry">
            <mxRectangle width="30" height="30" as="alternateBounds" />
          </mxGeometry>
        </mxCell>
        <mxCell id="GqP4DYXTLEp6i3isbO8n-1083" value="yellow_cards" style="shape=partialRectangle;connectable=0;fillColor=none;top=0;left=0;bottom=0;right=0;align=left;spacingLeft=6;overflow=hidden;whiteSpace=wrap;html=1;strokeColor=#788AA3;fontColor=#46495D;rounded=1;labelBackgroundColor=none;" parent="GqP4DYXTLEp6i3isbO8n-1081" vertex="1">
          <mxGeometry x="30" width="120" height="30" as="geometry">
            <mxRectangle width="120" height="30" as="alternateBounds" />
          </mxGeometry>
        </mxCell>
        <mxCell id="GqP4DYXTLEp6i3isbO8n-1084" value="INT" style="shape=partialRectangle;connectable=0;fillColor=none;top=0;left=0;bottom=0;right=0;align=left;spacingLeft=6;overflow=hidden;whiteSpace=wrap;html=1;strokeColor=#788AA3;fontColor=#46495D;rounded=1;labelBackgroundColor=none;" parent="GqP4DYXTLEp6i3isbO8n-1081" vertex="1">
          <mxGeometry x="150" width="100" height="30" as="geometry">
            <mxRectangle width="100" height="30" as="alternateBounds" />
          </mxGeometry>
        </mxCell>
        <mxCell id="GqP4DYXTLEp6i3isbO8n-1085" value="goals" style="shape=table;startSize=30;container=1;collapsible=1;childLayout=tableLayout;fixedRows=1;rowLines=0;fontStyle=1;align=center;resizeLast=1;html=1;strokeColor=#788AA3;fontColor=#46495D;fillColor=#B2C9AB;rounded=1;labelBackgroundColor=none;" parent="1" vertex="1">
          <mxGeometry x="423" y="588" width="250" height="210" as="geometry" />
        </mxCell>
        <mxCell id="GqP4DYXTLEp6i3isbO8n-1086" value="" style="shape=tableRow;horizontal=0;startSize=0;swimlaneHead=0;swimlaneBody=0;fillColor=none;collapsible=0;dropTarget=0;points=[[0,0.5],[1,0.5]];portConstraint=eastwest;top=0;left=0;right=0;bottom=1;strokeColor=#788AA3;fontColor=#46495D;rounded=1;labelBackgroundColor=none;" parent="GqP4DYXTLEp6i3isbO8n-1085" vertex="1">
          <mxGeometry y="30" width="250" height="30" as="geometry" />
        </mxCell>
        <mxCell id="GqP4DYXTLEp6i3isbO8n-1087" value="PK" style="shape=partialRectangle;connectable=0;fillColor=none;top=0;left=0;bottom=0;right=0;fontStyle=1;overflow=hidden;whiteSpace=wrap;html=1;strokeColor=#788AA3;fontColor=#46495D;rounded=1;labelBackgroundColor=none;" parent="GqP4DYXTLEp6i3isbO8n-1086" vertex="1">
          <mxGeometry width="30" height="30" as="geometry">
            <mxRectangle width="30" height="30" as="alternateBounds" />
          </mxGeometry>
        </mxCell>
        <mxCell id="GqP4DYXTLEp6i3isbO8n-1088" value="goal_id" style="shape=partialRectangle;connectable=0;fillColor=none;top=0;left=0;bottom=0;right=0;align=left;spacingLeft=6;fontStyle=1;overflow=hidden;whiteSpace=wrap;html=1;strokeColor=#788AA3;fontColor=#46495D;rounded=1;labelBackgroundColor=none;" parent="GqP4DYXTLEp6i3isbO8n-1086" vertex="1">
          <mxGeometry x="30" width="120" height="30" as="geometry">
            <mxRectangle width="120" height="30" as="alternateBounds" />
          </mxGeometry>
        </mxCell>
        <mxCell id="GqP4DYXTLEp6i3isbO8n-1089" value="INT" style="shape=partialRectangle;connectable=0;fillColor=none;top=0;left=0;bottom=0;right=0;align=left;spacingLeft=6;fontStyle=1;overflow=hidden;whiteSpace=wrap;html=1;strokeColor=#788AA3;fontColor=#46495D;rounded=1;labelBackgroundColor=none;" parent="GqP4DYXTLEp6i3isbO8n-1086" vertex="1">
          <mxGeometry x="150" width="100" height="30" as="geometry">
            <mxRectangle width="100" height="30" as="alternateBounds" />
          </mxGeometry>
        </mxCell>
        <mxCell id="GqP4DYXTLEp6i3isbO8n-1090" value="" style="shape=tableRow;horizontal=0;startSize=0;swimlaneHead=0;swimlaneBody=0;fillColor=none;collapsible=0;dropTarget=0;points=[[0,0.5],[1,0.5]];portConstraint=eastwest;top=0;left=0;right=0;bottom=0;strokeColor=#788AA3;fontColor=#46495D;rounded=1;labelBackgroundColor=none;" parent="GqP4DYXTLEp6i3isbO8n-1085" vertex="1">
          <mxGeometry y="60" width="250" height="30" as="geometry" />
        </mxCell>
        <mxCell id="GqP4DYXTLEp6i3isbO8n-1091" value="FK" style="shape=partialRectangle;connectable=0;fillColor=none;top=0;left=0;bottom=0;right=0;editable=1;overflow=hidden;whiteSpace=wrap;html=1;strokeColor=#788AA3;fontColor=#46495D;rounded=1;labelBackgroundColor=none;" parent="GqP4DYXTLEp6i3isbO8n-1090" vertex="1">
          <mxGeometry width="30" height="30" as="geometry">
            <mxRectangle width="30" height="30" as="alternateBounds" />
          </mxGeometry>
        </mxCell>
        <mxCell id="GqP4DYXTLEp6i3isbO8n-1092" value="match_id" style="shape=partialRectangle;connectable=0;fillColor=none;top=0;left=0;bottom=0;right=0;align=left;spacingLeft=6;overflow=hidden;whiteSpace=wrap;html=1;strokeColor=#788AA3;fontColor=#46495D;rounded=1;labelBackgroundColor=none;" parent="GqP4DYXTLEp6i3isbO8n-1090" vertex="1">
          <mxGeometry x="30" width="120" height="30" as="geometry">
            <mxRectangle width="120" height="30" as="alternateBounds" />
          </mxGeometry>
        </mxCell>
        <mxCell id="GqP4DYXTLEp6i3isbO8n-1093" value="INT" style="shape=partialRectangle;connectable=0;fillColor=none;top=0;left=0;bottom=0;right=0;align=left;spacingLeft=6;overflow=hidden;whiteSpace=wrap;html=1;strokeColor=#788AA3;fontColor=#46495D;rounded=1;labelBackgroundColor=none;" parent="GqP4DYXTLEp6i3isbO8n-1090" vertex="1">
          <mxGeometry x="150" width="100" height="30" as="geometry">
            <mxRectangle width="100" height="30" as="alternateBounds" />
          </mxGeometry>
        </mxCell>
        <mxCell id="GqP4DYXTLEp6i3isbO8n-1094" style="shape=tableRow;horizontal=0;startSize=0;swimlaneHead=0;swimlaneBody=0;fillColor=none;collapsible=0;dropTarget=0;points=[[0,0.5],[1,0.5]];portConstraint=eastwest;top=0;left=0;right=0;bottom=0;strokeColor=#788AA3;fontColor=#46495D;rounded=1;labelBackgroundColor=none;" parent="GqP4DYXTLEp6i3isbO8n-1085" vertex="1">
          <mxGeometry y="90" width="250" height="30" as="geometry" />
        </mxCell>
        <mxCell id="GqP4DYXTLEp6i3isbO8n-1095" value="FK" style="shape=partialRectangle;connectable=0;fillColor=none;top=0;left=0;bottom=0;right=0;editable=1;overflow=hidden;whiteSpace=wrap;html=1;strokeColor=#788AA3;fontColor=#46495D;rounded=1;labelBackgroundColor=none;" parent="GqP4DYXTLEp6i3isbO8n-1094" vertex="1">
          <mxGeometry width="30" height="30" as="geometry">
            <mxRectangle width="30" height="30" as="alternateBounds" />
          </mxGeometry>
        </mxCell>
        <mxCell id="GqP4DYXTLEp6i3isbO8n-1096" value="scorer_player_id" style="shape=partialRectangle;connectable=0;fillColor=none;top=0;left=0;bottom=0;right=0;align=left;spacingLeft=6;overflow=hidden;whiteSpace=wrap;html=1;strokeColor=#788AA3;fontColor=#46495D;rounded=1;labelBackgroundColor=none;" parent="GqP4DYXTLEp6i3isbO8n-1094" vertex="1">
          <mxGeometry x="30" width="120" height="30" as="geometry">
            <mxRectangle width="120" height="30" as="alternateBounds" />
          </mxGeometry>
        </mxCell>
        <mxCell id="GqP4DYXTLEp6i3isbO8n-1097" value="INT" style="shape=partialRectangle;connectable=0;fillColor=none;top=0;left=0;bottom=0;right=0;align=left;spacingLeft=6;overflow=hidden;whiteSpace=wrap;html=1;strokeColor=#788AA3;fontColor=#46495D;rounded=1;labelBackgroundColor=none;" parent="GqP4DYXTLEp6i3isbO8n-1094" vertex="1">
          <mxGeometry x="150" width="100" height="30" as="geometry">
            <mxRectangle width="100" height="30" as="alternateBounds" />
          </mxGeometry>
        </mxCell>
        <mxCell id="GqP4DYXTLEp6i3isbO8n-1098" style="shape=tableRow;horizontal=0;startSize=0;swimlaneHead=0;swimlaneBody=0;fillColor=none;collapsible=0;dropTarget=0;points=[[0,0.5],[1,0.5]];portConstraint=eastwest;top=0;left=0;right=0;bottom=0;strokeColor=#788AA3;fontColor=#46495D;rounded=1;labelBackgroundColor=none;verticalAlign=middle;" parent="GqP4DYXTLEp6i3isbO8n-1085" vertex="1">
          <mxGeometry y="120" width="250" height="30" as="geometry" />
        </mxCell>
        <mxCell id="GqP4DYXTLEp6i3isbO8n-1099" value="FK" style="shape=partialRectangle;connectable=0;fillColor=none;top=0;left=0;bottom=0;right=0;editable=1;overflow=hidden;whiteSpace=wrap;html=1;strokeColor=#788AA3;fontColor=#46495D;rounded=1;labelBackgroundColor=none;" parent="GqP4DYXTLEp6i3isbO8n-1098" vertex="1">
          <mxGeometry width="30" height="30" as="geometry">
            <mxRectangle width="30" height="30" as="alternateBounds" />
          </mxGeometry>
        </mxCell>
        <mxCell id="GqP4DYXTLEp6i3isbO8n-1100" value="assist_player_id" style="shape=partialRectangle;connectable=0;fillColor=none;top=0;left=0;bottom=0;right=0;align=left;spacingLeft=6;overflow=hidden;whiteSpace=wrap;html=1;strokeColor=#788AA3;fontColor=#46495D;rounded=1;labelBackgroundColor=none;" parent="GqP4DYXTLEp6i3isbO8n-1098" vertex="1">
          <mxGeometry x="30" width="120" height="30" as="geometry">
            <mxRectangle width="120" height="30" as="alternateBounds" />
          </mxGeometry>
        </mxCell>
        <mxCell id="GqP4DYXTLEp6i3isbO8n-1101" value="INT" style="shape=partialRectangle;connectable=0;fillColor=none;top=0;left=0;bottom=0;right=0;align=left;spacingLeft=6;overflow=hidden;whiteSpace=wrap;html=1;strokeColor=#788AA3;fontColor=#46495D;rounded=1;labelBackgroundColor=none;verticalAlign=middle;" parent="GqP4DYXTLEp6i3isbO8n-1098" vertex="1">
          <mxGeometry x="150" width="100" height="30" as="geometry">
            <mxRectangle width="100" height="30" as="alternateBounds" />
          </mxGeometry>
        </mxCell>
        <mxCell id="GqP4DYXTLEp6i3isbO8n-1106" style="shape=tableRow;horizontal=0;startSize=0;swimlaneHead=0;swimlaneBody=0;fillColor=none;collapsible=0;dropTarget=0;points=[[0,0.5],[1,0.5]];portConstraint=eastwest;top=0;left=0;right=0;bottom=0;strokeColor=#788AA3;fontColor=#46495D;rounded=1;labelBackgroundColor=none;verticalAlign=middle;" parent="GqP4DYXTLEp6i3isbO8n-1085" vertex="1">
          <mxGeometry y="150" width="250" height="30" as="geometry" />
        </mxCell>
        <mxCell id="GqP4DYXTLEp6i3isbO8n-1107" style="shape=partialRectangle;connectable=0;fillColor=none;top=0;left=0;bottom=0;right=0;editable=1;overflow=hidden;whiteSpace=wrap;html=1;strokeColor=#788AA3;fontColor=#46495D;rounded=1;labelBackgroundColor=none;" parent="GqP4DYXTLEp6i3isbO8n-1106" vertex="1">
          <mxGeometry width="30" height="30" as="geometry">
            <mxRectangle width="30" height="30" as="alternateBounds" />
          </mxGeometry>
        </mxCell>
        <mxCell id="GqP4DYXTLEp6i3isbO8n-1108" value="time" style="shape=partialRectangle;connectable=0;fillColor=none;top=0;left=0;bottom=0;right=0;align=left;spacingLeft=6;overflow=hidden;whiteSpace=wrap;html=1;strokeColor=#788AA3;fontColor=#46495D;rounded=1;labelBackgroundColor=none;" parent="GqP4DYXTLEp6i3isbO8n-1106" vertex="1">
          <mxGeometry x="30" width="120" height="30" as="geometry">
            <mxRectangle width="120" height="30" as="alternateBounds" />
          </mxGeometry>
        </mxCell>
        <mxCell id="GqP4DYXTLEp6i3isbO8n-1109" value="VARCHAR(10)" style="shape=partialRectangle;connectable=0;fillColor=none;top=0;left=0;bottom=0;right=0;align=left;spacingLeft=6;overflow=hidden;whiteSpace=wrap;html=1;strokeColor=#788AA3;fontColor=#46495D;rounded=1;labelBackgroundColor=none;verticalAlign=middle;" parent="GqP4DYXTLEp6i3isbO8n-1106" vertex="1">
          <mxGeometry x="150" width="100" height="30" as="geometry">
            <mxRectangle width="100" height="30" as="alternateBounds" />
          </mxGeometry>
        </mxCell>
        <mxCell id="GqP4DYXTLEp6i3isbO8n-1102" style="shape=tableRow;horizontal=0;startSize=0;swimlaneHead=0;swimlaneBody=0;fillColor=none;collapsible=0;dropTarget=0;points=[[0,0.5],[1,0.5]];portConstraint=eastwest;top=0;left=0;right=0;bottom=0;strokeColor=#788AA3;fontColor=#46495D;rounded=1;labelBackgroundColor=none;verticalAlign=middle;" parent="GqP4DYXTLEp6i3isbO8n-1085" vertex="1">
          <mxGeometry y="180" width="250" height="30" as="geometry" />
        </mxCell>
        <mxCell id="GqP4DYXTLEp6i3isbO8n-1103" value="FK" style="shape=partialRectangle;connectable=0;fillColor=none;top=0;left=0;bottom=0;right=0;editable=1;overflow=hidden;whiteSpace=wrap;html=1;strokeColor=#788AA3;fontColor=#46495D;rounded=1;labelBackgroundColor=none;" parent="GqP4DYXTLEp6i3isbO8n-1102" vertex="1">
          <mxGeometry width="30" height="30" as="geometry">
            <mxRectangle width="30" height="30" as="alternateBounds" />
          </mxGeometry>
        </mxCell>
        <mxCell id="GqP4DYXTLEp6i3isbO8n-1104" value="scoring_team_id" style="shape=partialRectangle;connectable=0;fillColor=none;top=0;left=0;bottom=0;right=0;align=left;spacingLeft=6;overflow=hidden;whiteSpace=wrap;html=1;strokeColor=#788AA3;fontColor=#46495D;rounded=1;labelBackgroundColor=none;" parent="GqP4DYXTLEp6i3isbO8n-1102" vertex="1">
          <mxGeometry x="30" width="120" height="30" as="geometry">
            <mxRectangle width="120" height="30" as="alternateBounds" />
          </mxGeometry>
        </mxCell>
        <mxCell id="GqP4DYXTLEp6i3isbO8n-1105" value="INT" style="shape=partialRectangle;connectable=0;fillColor=none;top=0;left=0;bottom=0;right=0;align=left;spacingLeft=6;overflow=hidden;whiteSpace=wrap;html=1;strokeColor=#788AA3;fontColor=#46495D;rounded=1;labelBackgroundColor=none;verticalAlign=middle;" parent="GqP4DYXTLEp6i3isbO8n-1102" vertex="1">
          <mxGeometry x="150" width="100" height="30" as="geometry">
            <mxRectangle width="100" height="30" as="alternateBounds" />
          </mxGeometry>
        </mxCell>
        <mxCell id="GqP4DYXTLEp6i3isbO8n-1110" value="referees" style="shape=table;startSize=30;container=1;collapsible=1;childLayout=tableLayout;fixedRows=1;rowLines=0;fontStyle=1;align=center;resizeLast=1;html=1;strokeColor=#788AA3;fontColor=#46495D;fillColor=#B2C9AB;rounded=1;labelBackgroundColor=none;" parent="1" vertex="1">
          <mxGeometry x="65" y="113" width="250" height="210" as="geometry" />
        </mxCell>
        <mxCell id="GqP4DYXTLEp6i3isbO8n-1111" value="" style="shape=tableRow;horizontal=0;startSize=0;swimlaneHead=0;swimlaneBody=0;fillColor=none;collapsible=0;dropTarget=0;points=[[0,0.5],[1,0.5]];portConstraint=eastwest;top=0;left=0;right=0;bottom=1;strokeColor=#788AA3;fontColor=#46495D;rounded=1;labelBackgroundColor=none;" parent="GqP4DYXTLEp6i3isbO8n-1110" vertex="1">
          <mxGeometry y="30" width="250" height="30" as="geometry" />
        </mxCell>
        <mxCell id="GqP4DYXTLEp6i3isbO8n-1112" value="PK" style="shape=partialRectangle;connectable=0;fillColor=none;top=0;left=0;bottom=0;right=0;fontStyle=1;overflow=hidden;whiteSpace=wrap;html=1;strokeColor=#788AA3;fontColor=#46495D;rounded=1;labelBackgroundColor=none;" parent="GqP4DYXTLEp6i3isbO8n-1111" vertex="1">
          <mxGeometry width="30" height="30" as="geometry">
            <mxRectangle width="30" height="30" as="alternateBounds" />
          </mxGeometry>
        </mxCell>
        <mxCell id="GqP4DYXTLEp6i3isbO8n-1113" value="referee_id" style="shape=partialRectangle;connectable=0;fillColor=none;top=0;left=0;bottom=0;right=0;align=left;spacingLeft=6;fontStyle=1;overflow=hidden;whiteSpace=wrap;html=1;strokeColor=#788AA3;fontColor=#46495D;rounded=1;labelBackgroundColor=none;" parent="GqP4DYXTLEp6i3isbO8n-1111" vertex="1">
          <mxGeometry x="30" width="120" height="30" as="geometry">
            <mxRectangle width="120" height="30" as="alternateBounds" />
          </mxGeometry>
        </mxCell>
        <mxCell id="GqP4DYXTLEp6i3isbO8n-1114" value="INT" style="shape=partialRectangle;connectable=0;fillColor=none;top=0;left=0;bottom=0;right=0;align=left;spacingLeft=6;fontStyle=1;overflow=hidden;whiteSpace=wrap;html=1;strokeColor=#788AA3;fontColor=#46495D;rounded=1;labelBackgroundColor=none;" parent="GqP4DYXTLEp6i3isbO8n-1111" vertex="1">
          <mxGeometry x="150" width="100" height="30" as="geometry">
            <mxRectangle width="100" height="30" as="alternateBounds" />
          </mxGeometry>
        </mxCell>
        <mxCell id="GqP4DYXTLEp6i3isbO8n-1115" value="" style="shape=tableRow;horizontal=0;startSize=0;swimlaneHead=0;swimlaneBody=0;fillColor=none;collapsible=0;dropTarget=0;points=[[0,0.5],[1,0.5]];portConstraint=eastwest;top=0;left=0;right=0;bottom=0;strokeColor=#788AA3;fontColor=#46495D;rounded=1;labelBackgroundColor=none;" parent="GqP4DYXTLEp6i3isbO8n-1110" vertex="1">
          <mxGeometry y="60" width="250" height="30" as="geometry" />
        </mxCell>
        <mxCell id="GqP4DYXTLEp6i3isbO8n-1116" value="" style="shape=partialRectangle;connectable=0;fillColor=none;top=0;left=0;bottom=0;right=0;editable=1;overflow=hidden;whiteSpace=wrap;html=1;strokeColor=#788AA3;fontColor=#46495D;rounded=1;labelBackgroundColor=none;" parent="GqP4DYXTLEp6i3isbO8n-1115" vertex="1">
          <mxGeometry width="30" height="30" as="geometry">
            <mxRectangle width="30" height="30" as="alternateBounds" />
          </mxGeometry>
        </mxCell>
        <mxCell id="GqP4DYXTLEp6i3isbO8n-1117" value="first_name" style="shape=partialRectangle;connectable=0;fillColor=none;top=0;left=0;bottom=0;right=0;align=left;spacingLeft=6;overflow=hidden;whiteSpace=wrap;html=1;strokeColor=#788AA3;fontColor=#46495D;rounded=1;labelBackgroundColor=none;" parent="GqP4DYXTLEp6i3isbO8n-1115" vertex="1">
          <mxGeometry x="30" width="120" height="30" as="geometry">
            <mxRectangle width="120" height="30" as="alternateBounds" />
          </mxGeometry>
        </mxCell>
        <mxCell id="GqP4DYXTLEp6i3isbO8n-1118" value="NVARCHAR(50)" style="shape=partialRectangle;connectable=0;fillColor=none;top=0;left=0;bottom=0;right=0;align=left;spacingLeft=6;overflow=hidden;whiteSpace=wrap;html=1;strokeColor=#788AA3;fontColor=#46495D;rounded=1;labelBackgroundColor=none;" parent="GqP4DYXTLEp6i3isbO8n-1115" vertex="1">
          <mxGeometry x="150" width="100" height="30" as="geometry">
            <mxRectangle width="100" height="30" as="alternateBounds" />
          </mxGeometry>
        </mxCell>
        <mxCell id="GqP4DYXTLEp6i3isbO8n-1119" style="shape=tableRow;horizontal=0;startSize=0;swimlaneHead=0;swimlaneBody=0;fillColor=none;collapsible=0;dropTarget=0;points=[[0,0.5],[1,0.5]];portConstraint=eastwest;top=0;left=0;right=0;bottom=0;strokeColor=#788AA3;fontColor=#46495D;rounded=1;labelBackgroundColor=none;" parent="GqP4DYXTLEp6i3isbO8n-1110" vertex="1">
          <mxGeometry y="90" width="250" height="30" as="geometry" />
        </mxCell>
        <mxCell id="GqP4DYXTLEp6i3isbO8n-1120" style="shape=partialRectangle;connectable=0;fillColor=none;top=0;left=0;bottom=0;right=0;editable=1;overflow=hidden;whiteSpace=wrap;html=1;strokeColor=#788AA3;fontColor=#46495D;rounded=1;labelBackgroundColor=none;" parent="GqP4DYXTLEp6i3isbO8n-1119" vertex="1">
          <mxGeometry width="30" height="30" as="geometry">
            <mxRectangle width="30" height="30" as="alternateBounds" />
          </mxGeometry>
        </mxCell>
        <mxCell id="GqP4DYXTLEp6i3isbO8n-1121" value="last_name" style="shape=partialRectangle;connectable=0;fillColor=none;top=0;left=0;bottom=0;right=0;align=left;spacingLeft=6;overflow=hidden;whiteSpace=wrap;html=1;strokeColor=#788AA3;fontColor=#46495D;rounded=1;labelBackgroundColor=none;" parent="GqP4DYXTLEp6i3isbO8n-1119" vertex="1">
          <mxGeometry x="30" width="120" height="30" as="geometry">
            <mxRectangle width="120" height="30" as="alternateBounds" />
          </mxGeometry>
        </mxCell>
        <mxCell id="GqP4DYXTLEp6i3isbO8n-1122" value="NVARCHAR(50)" style="shape=partialRectangle;connectable=0;fillColor=none;top=0;left=0;bottom=0;right=0;align=left;spacingLeft=6;overflow=hidden;whiteSpace=wrap;html=1;strokeColor=#788AA3;fontColor=#46495D;rounded=1;labelBackgroundColor=none;" parent="GqP4DYXTLEp6i3isbO8n-1119" vertex="1">
          <mxGeometry x="150" width="100" height="30" as="geometry">
            <mxRectangle width="100" height="30" as="alternateBounds" />
          </mxGeometry>
        </mxCell>
        <mxCell id="GqP4DYXTLEp6i3isbO8n-1127" style="shape=tableRow;horizontal=0;startSize=0;swimlaneHead=0;swimlaneBody=0;fillColor=none;collapsible=0;dropTarget=0;points=[[0,0.5],[1,0.5]];portConstraint=eastwest;top=0;left=0;right=0;bottom=0;strokeColor=#788AA3;fontColor=#46495D;rounded=1;labelBackgroundColor=none;" parent="GqP4DYXTLEp6i3isbO8n-1110" vertex="1">
          <mxGeometry y="120" width="250" height="30" as="geometry" />
        </mxCell>
        <mxCell id="GqP4DYXTLEp6i3isbO8n-1128" style="shape=partialRectangle;connectable=0;fillColor=none;top=0;left=0;bottom=0;right=0;editable=1;overflow=hidden;whiteSpace=wrap;html=1;strokeColor=#788AA3;fontColor=#46495D;rounded=1;labelBackgroundColor=none;" parent="GqP4DYXTLEp6i3isbO8n-1127" vertex="1">
          <mxGeometry width="30" height="30" as="geometry">
            <mxRectangle width="30" height="30" as="alternateBounds" />
          </mxGeometry>
        </mxCell>
        <mxCell id="GqP4DYXTLEp6i3isbO8n-1129" value="appearances" style="shape=partialRectangle;connectable=0;fillColor=none;top=0;left=0;bottom=0;right=0;align=left;spacingLeft=6;overflow=hidden;whiteSpace=wrap;html=1;strokeColor=#788AA3;fontColor=#46495D;rounded=1;labelBackgroundColor=none;" parent="GqP4DYXTLEp6i3isbO8n-1127" vertex="1">
          <mxGeometry x="30" width="120" height="30" as="geometry">
            <mxRectangle width="120" height="30" as="alternateBounds" />
          </mxGeometry>
        </mxCell>
        <mxCell id="GqP4DYXTLEp6i3isbO8n-1130" value="INT" style="shape=partialRectangle;connectable=0;fillColor=none;top=0;left=0;bottom=0;right=0;align=left;spacingLeft=6;overflow=hidden;whiteSpace=wrap;html=1;strokeColor=#788AA3;fontColor=#46495D;rounded=1;labelBackgroundColor=none;" parent="GqP4DYXTLEp6i3isbO8n-1127" vertex="1">
          <mxGeometry x="150" width="100" height="30" as="geometry">
            <mxRectangle width="100" height="30" as="alternateBounds" />
          </mxGeometry>
        </mxCell>
        <mxCell id="GqP4DYXTLEp6i3isbO8n-1131" style="shape=tableRow;horizontal=0;startSize=0;swimlaneHead=0;swimlaneBody=0;fillColor=none;collapsible=0;dropTarget=0;points=[[0,0.5],[1,0.5]];portConstraint=eastwest;top=0;left=0;right=0;bottom=0;strokeColor=#788AA3;fontColor=#46495D;rounded=1;labelBackgroundColor=none;verticalAlign=middle;" parent="GqP4DYXTLEp6i3isbO8n-1110" vertex="1">
          <mxGeometry y="150" width="250" height="30" as="geometry" />
        </mxCell>
        <mxCell id="GqP4DYXTLEp6i3isbO8n-1132" style="shape=partialRectangle;connectable=0;fillColor=none;top=0;left=0;bottom=0;right=0;editable=1;overflow=hidden;whiteSpace=wrap;html=1;strokeColor=#788AA3;fontColor=#46495D;rounded=1;labelBackgroundColor=none;" parent="GqP4DYXTLEp6i3isbO8n-1131" vertex="1">
          <mxGeometry width="30" height="30" as="geometry">
            <mxRectangle width="30" height="30" as="alternateBounds" />
          </mxGeometry>
        </mxCell>
        <mxCell id="GqP4DYXTLEp6i3isbO8n-1133" value="red_cards" style="shape=partialRectangle;connectable=0;fillColor=none;top=0;left=0;bottom=0;right=0;align=left;spacingLeft=6;overflow=hidden;whiteSpace=wrap;html=1;strokeColor=#788AA3;fontColor=#46495D;rounded=1;labelBackgroundColor=none;" parent="GqP4DYXTLEp6i3isbO8n-1131" vertex="1">
          <mxGeometry x="30" width="120" height="30" as="geometry">
            <mxRectangle width="120" height="30" as="alternateBounds" />
          </mxGeometry>
        </mxCell>
        <mxCell id="GqP4DYXTLEp6i3isbO8n-1134" value="INT" style="shape=partialRectangle;connectable=0;fillColor=none;top=0;left=0;bottom=0;right=0;align=left;spacingLeft=6;overflow=hidden;whiteSpace=wrap;html=1;strokeColor=#788AA3;fontColor=#46495D;rounded=1;labelBackgroundColor=none;verticalAlign=middle;" parent="GqP4DYXTLEp6i3isbO8n-1131" vertex="1">
          <mxGeometry x="150" width="100" height="30" as="geometry">
            <mxRectangle width="100" height="30" as="alternateBounds" />
          </mxGeometry>
        </mxCell>
        <mxCell id="GqP4DYXTLEp6i3isbO8n-1135" style="shape=tableRow;horizontal=0;startSize=0;swimlaneHead=0;swimlaneBody=0;fillColor=none;collapsible=0;dropTarget=0;points=[[0,0.5],[1,0.5]];portConstraint=eastwest;top=0;left=0;right=0;bottom=0;strokeColor=#788AA3;fontColor=#46495D;rounded=1;labelBackgroundColor=none;verticalAlign=middle;" parent="GqP4DYXTLEp6i3isbO8n-1110" vertex="1">
          <mxGeometry y="180" width="250" height="30" as="geometry" />
        </mxCell>
        <mxCell id="GqP4DYXTLEp6i3isbO8n-1136" style="shape=partialRectangle;connectable=0;fillColor=none;top=0;left=0;bottom=0;right=0;editable=1;overflow=hidden;whiteSpace=wrap;html=1;strokeColor=#788AA3;fontColor=#46495D;rounded=1;labelBackgroundColor=none;" parent="GqP4DYXTLEp6i3isbO8n-1135" vertex="1">
          <mxGeometry width="30" height="30" as="geometry">
            <mxRectangle width="30" height="30" as="alternateBounds" />
          </mxGeometry>
        </mxCell>
        <mxCell id="GqP4DYXTLEp6i3isbO8n-1137" value="yellow_cards" style="shape=partialRectangle;connectable=0;fillColor=none;top=0;left=0;bottom=0;right=0;align=left;spacingLeft=6;overflow=hidden;whiteSpace=wrap;html=1;strokeColor=#788AA3;fontColor=#46495D;rounded=1;labelBackgroundColor=none;" parent="GqP4DYXTLEp6i3isbO8n-1135" vertex="1">
          <mxGeometry x="30" width="120" height="30" as="geometry">
            <mxRectangle width="120" height="30" as="alternateBounds" />
          </mxGeometry>
        </mxCell>
        <mxCell id="GqP4DYXTLEp6i3isbO8n-1138" value="INT" style="shape=partialRectangle;connectable=0;fillColor=none;top=0;left=0;bottom=0;right=0;align=left;spacingLeft=6;overflow=hidden;whiteSpace=wrap;html=1;strokeColor=#788AA3;fontColor=#46495D;rounded=1;labelBackgroundColor=none;verticalAlign=middle;" parent="GqP4DYXTLEp6i3isbO8n-1135" vertex="1">
          <mxGeometry x="150" width="100" height="30" as="geometry">
            <mxRectangle width="100" height="30" as="alternateBounds" />
          </mxGeometry>
        </mxCell>
        <mxCell id="GqP4DYXTLEp6i3isbO8n-1139" value="teams" style="shape=table;startSize=30;container=1;collapsible=1;childLayout=tableLayout;fixedRows=1;rowLines=0;fontStyle=1;align=center;resizeLast=1;html=1;strokeColor=#788AA3;fontColor=#46495D;fillColor=#B2C9AB;rounded=1;labelBackgroundColor=none;" parent="1" vertex="1">
          <mxGeometry x="798" y="473" width="250" height="300" as="geometry" />
        </mxCell>
        <mxCell id="GqP4DYXTLEp6i3isbO8n-1140" value="" style="shape=tableRow;horizontal=0;startSize=0;swimlaneHead=0;swimlaneBody=0;fillColor=none;collapsible=0;dropTarget=0;points=[[0,0.5],[1,0.5]];portConstraint=eastwest;top=0;left=0;right=0;bottom=1;strokeColor=#788AA3;fontColor=#46495D;rounded=1;labelBackgroundColor=none;" parent="GqP4DYXTLEp6i3isbO8n-1139" vertex="1">
          <mxGeometry y="30" width="250" height="30" as="geometry" />
        </mxCell>
        <mxCell id="GqP4DYXTLEp6i3isbO8n-1141" value="PK" style="shape=partialRectangle;connectable=0;fillColor=none;top=0;left=0;bottom=0;right=0;fontStyle=1;overflow=hidden;whiteSpace=wrap;html=1;strokeColor=#788AA3;fontColor=#46495D;rounded=1;labelBackgroundColor=none;" parent="GqP4DYXTLEp6i3isbO8n-1140" vertex="1">
          <mxGeometry width="30" height="30" as="geometry">
            <mxRectangle width="30" height="30" as="alternateBounds" />
          </mxGeometry>
        </mxCell>
        <mxCell id="GqP4DYXTLEp6i3isbO8n-1142" value="team_id" style="shape=partialRectangle;connectable=0;fillColor=none;top=0;left=0;bottom=0;right=0;align=left;spacingLeft=6;fontStyle=1;overflow=hidden;whiteSpace=wrap;html=1;strokeColor=#788AA3;fontColor=#46495D;rounded=1;labelBackgroundColor=none;" parent="GqP4DYXTLEp6i3isbO8n-1140" vertex="1">
          <mxGeometry x="30" width="120" height="30" as="geometry">
            <mxRectangle width="120" height="30" as="alternateBounds" />
          </mxGeometry>
        </mxCell>
        <mxCell id="GqP4DYXTLEp6i3isbO8n-1143" value="INT" style="shape=partialRectangle;connectable=0;fillColor=none;top=0;left=0;bottom=0;right=0;align=left;spacingLeft=6;fontStyle=1;overflow=hidden;whiteSpace=wrap;html=1;strokeColor=#788AA3;fontColor=#46495D;rounded=1;labelBackgroundColor=none;" parent="GqP4DYXTLEp6i3isbO8n-1140" vertex="1">
          <mxGeometry x="150" width="100" height="30" as="geometry">
            <mxRectangle width="100" height="30" as="alternateBounds" />
          </mxGeometry>
        </mxCell>
        <mxCell id="GqP4DYXTLEp6i3isbO8n-1144" value="" style="shape=tableRow;horizontal=0;startSize=0;swimlaneHead=0;swimlaneBody=0;fillColor=none;collapsible=0;dropTarget=0;points=[[0,0.5],[1,0.5]];portConstraint=eastwest;top=0;left=0;right=0;bottom=0;strokeColor=#788AA3;fontColor=#46495D;rounded=1;labelBackgroundColor=none;" parent="GqP4DYXTLEp6i3isbO8n-1139" vertex="1">
          <mxGeometry y="60" width="250" height="30" as="geometry" />
        </mxCell>
        <mxCell id="GqP4DYXTLEp6i3isbO8n-1145" value="" style="shape=partialRectangle;connectable=0;fillColor=none;top=0;left=0;bottom=0;right=0;editable=1;overflow=hidden;whiteSpace=wrap;html=1;strokeColor=#788AA3;fontColor=#46495D;rounded=1;labelBackgroundColor=none;" parent="GqP4DYXTLEp6i3isbO8n-1144" vertex="1">
          <mxGeometry width="30" height="30" as="geometry">
            <mxRectangle width="30" height="30" as="alternateBounds" />
          </mxGeometry>
        </mxCell>
        <mxCell id="GqP4DYXTLEp6i3isbO8n-1146" value="team_name" style="shape=partialRectangle;connectable=0;fillColor=none;top=0;left=0;bottom=0;right=0;align=left;spacingLeft=6;overflow=hidden;whiteSpace=wrap;html=1;strokeColor=#788AA3;fontColor=#46495D;rounded=1;labelBackgroundColor=none;" parent="GqP4DYXTLEp6i3isbO8n-1144" vertex="1">
          <mxGeometry x="30" width="120" height="30" as="geometry">
            <mxRectangle width="120" height="30" as="alternateBounds" />
          </mxGeometry>
        </mxCell>
        <mxCell id="GqP4DYXTLEp6i3isbO8n-1147" value="&lt;span style=&quot;color: rgb(70, 73, 93); font-family: Helvetica; font-size: 12px; font-style: normal; font-variant-ligatures: normal; font-variant-caps: normal; font-weight: 400; letter-spacing: normal; orphans: 2; text-align: left; text-indent: 0px; text-transform: none; widows: 2; word-spacing: 0px; -webkit-text-stroke-width: 0px; background-color: rgb(251, 251, 251); text-decoration-thickness: initial; text-decoration-style: initial; text-decoration-color: initial; float: none; display: inline !important;&quot;&gt;VARCHAR(50)&lt;/span&gt;" style="shape=partialRectangle;connectable=0;fillColor=none;top=0;left=0;bottom=0;right=0;align=left;spacingLeft=6;overflow=hidden;whiteSpace=wrap;html=1;strokeColor=#788AA3;fontColor=#46495D;rounded=1;labelBackgroundColor=none;" parent="GqP4DYXTLEp6i3isbO8n-1144" vertex="1">
          <mxGeometry x="150" width="100" height="30" as="geometry">
            <mxRectangle width="100" height="30" as="alternateBounds" />
          </mxGeometry>
        </mxCell>
        <mxCell id="GqP4DYXTLEp6i3isbO8n-1148" style="shape=tableRow;horizontal=0;startSize=0;swimlaneHead=0;swimlaneBody=0;fillColor=none;collapsible=0;dropTarget=0;points=[[0,0.5],[1,0.5]];portConstraint=eastwest;top=0;left=0;right=0;bottom=0;strokeColor=#788AA3;fontColor=#46495D;rounded=1;labelBackgroundColor=none;" parent="GqP4DYXTLEp6i3isbO8n-1139" vertex="1">
          <mxGeometry y="90" width="250" height="30" as="geometry" />
        </mxCell>
        <mxCell id="GqP4DYXTLEp6i3isbO8n-1149" style="shape=partialRectangle;connectable=0;fillColor=none;top=0;left=0;bottom=0;right=0;editable=1;overflow=hidden;whiteSpace=wrap;html=1;strokeColor=#788AA3;fontColor=#46495D;rounded=1;labelBackgroundColor=none;" parent="GqP4DYXTLEp6i3isbO8n-1148" vertex="1">
          <mxGeometry width="30" height="30" as="geometry">
            <mxRectangle width="30" height="30" as="alternateBounds" />
          </mxGeometry>
        </mxCell>
        <mxCell id="GqP4DYXTLEp6i3isbO8n-1150" value="founded_year" style="shape=partialRectangle;connectable=0;fillColor=none;top=0;left=0;bottom=0;right=0;align=left;spacingLeft=6;overflow=hidden;whiteSpace=wrap;html=1;strokeColor=#788AA3;fontColor=#46495D;rounded=1;labelBackgroundColor=none;" parent="GqP4DYXTLEp6i3isbO8n-1148" vertex="1">
          <mxGeometry x="30" width="120" height="30" as="geometry">
            <mxRectangle width="120" height="30" as="alternateBounds" />
          </mxGeometry>
        </mxCell>
        <mxCell id="GqP4DYXTLEp6i3isbO8n-1151" value="INT" style="shape=partialRectangle;connectable=0;fillColor=none;top=0;left=0;bottom=0;right=0;align=left;spacingLeft=6;overflow=hidden;whiteSpace=wrap;html=1;strokeColor=#788AA3;fontColor=#46495D;rounded=1;labelBackgroundColor=none;" parent="GqP4DYXTLEp6i3isbO8n-1148" vertex="1">
          <mxGeometry x="150" width="100" height="30" as="geometry">
            <mxRectangle width="100" height="30" as="alternateBounds" />
          </mxGeometry>
        </mxCell>
        <mxCell id="GqP4DYXTLEp6i3isbO8n-1152" style="shape=tableRow;horizontal=0;startSize=0;swimlaneHead=0;swimlaneBody=0;fillColor=none;collapsible=0;dropTarget=0;points=[[0,0.5],[1,0.5]];portConstraint=eastwest;top=0;left=0;right=0;bottom=0;strokeColor=#788AA3;fontColor=#46495D;rounded=1;labelBackgroundColor=none;verticalAlign=middle;" parent="GqP4DYXTLEp6i3isbO8n-1139" vertex="1">
          <mxGeometry y="120" width="250" height="30" as="geometry" />
        </mxCell>
        <mxCell id="GqP4DYXTLEp6i3isbO8n-1153" style="shape=partialRectangle;connectable=0;fillColor=none;top=0;left=0;bottom=0;right=0;editable=1;overflow=hidden;whiteSpace=wrap;html=1;strokeColor=#788AA3;fontColor=#46495D;rounded=1;labelBackgroundColor=none;" parent="GqP4DYXTLEp6i3isbO8n-1152" vertex="1">
          <mxGeometry width="30" height="30" as="geometry">
            <mxRectangle width="30" height="30" as="alternateBounds" />
          </mxGeometry>
        </mxCell>
        <mxCell id="GqP4DYXTLEp6i3isbO8n-1154" value="city" style="shape=partialRectangle;connectable=0;fillColor=none;top=0;left=0;bottom=0;right=0;align=left;spacingLeft=6;overflow=hidden;whiteSpace=wrap;html=1;strokeColor=#788AA3;fontColor=#46495D;rounded=1;labelBackgroundColor=none;" parent="GqP4DYXTLEp6i3isbO8n-1152" vertex="1">
          <mxGeometry x="30" width="120" height="30" as="geometry">
            <mxRectangle width="120" height="30" as="alternateBounds" />
          </mxGeometry>
        </mxCell>
        <mxCell id="GqP4DYXTLEp6i3isbO8n-1155" value="VARCHAR(50)" style="shape=partialRectangle;connectable=0;fillColor=none;top=0;left=0;bottom=0;right=0;align=left;spacingLeft=6;overflow=hidden;whiteSpace=wrap;html=1;strokeColor=#788AA3;fontColor=#46495D;rounded=1;labelBackgroundColor=none;verticalAlign=middle;" parent="GqP4DYXTLEp6i3isbO8n-1152" vertex="1">
          <mxGeometry x="150" width="100" height="30" as="geometry">
            <mxRectangle width="100" height="30" as="alternateBounds" />
          </mxGeometry>
        </mxCell>
        <mxCell id="eeFlZnbKs4hJiipbl1_z-9" style="shape=tableRow;horizontal=0;startSize=0;swimlaneHead=0;swimlaneBody=0;fillColor=none;collapsible=0;dropTarget=0;points=[[0,0.5],[1,0.5]];portConstraint=eastwest;top=0;left=0;right=0;bottom=0;strokeColor=#788AA3;fontColor=#46495D;rounded=1;labelBackgroundColor=none;verticalAlign=middle;" parent="GqP4DYXTLEp6i3isbO8n-1139" vertex="1">
          <mxGeometry y="150" width="250" height="30" as="geometry" />
        </mxCell>
        <mxCell id="eeFlZnbKs4hJiipbl1_z-10" style="shape=partialRectangle;connectable=0;fillColor=none;top=0;left=0;bottom=0;right=0;editable=1;overflow=hidden;whiteSpace=wrap;html=1;strokeColor=#788AA3;fontColor=#46495D;rounded=1;labelBackgroundColor=none;" parent="eeFlZnbKs4hJiipbl1_z-9" vertex="1">
          <mxGeometry width="30" height="30" as="geometry">
            <mxRectangle width="30" height="30" as="alternateBounds" />
          </mxGeometry>
        </mxCell>
        <mxCell id="eeFlZnbKs4hJiipbl1_z-11" value="wins" style="shape=partialRectangle;connectable=0;fillColor=none;top=0;left=0;bottom=0;right=0;align=left;spacingLeft=6;overflow=hidden;whiteSpace=wrap;html=1;strokeColor=#788AA3;fontColor=#46495D;rounded=1;labelBackgroundColor=none;" parent="eeFlZnbKs4hJiipbl1_z-9" vertex="1">
          <mxGeometry x="30" width="120" height="30" as="geometry">
            <mxRectangle width="120" height="30" as="alternateBounds" />
          </mxGeometry>
        </mxCell>
        <mxCell id="eeFlZnbKs4hJiipbl1_z-12" value="INT" style="shape=partialRectangle;connectable=0;fillColor=none;top=0;left=0;bottom=0;right=0;align=left;spacingLeft=6;overflow=hidden;whiteSpace=wrap;html=1;strokeColor=#788AA3;fontColor=#46495D;rounded=1;labelBackgroundColor=none;verticalAlign=middle;" parent="eeFlZnbKs4hJiipbl1_z-9" vertex="1">
          <mxGeometry x="150" width="100" height="30" as="geometry">
            <mxRectangle width="100" height="30" as="alternateBounds" />
          </mxGeometry>
        </mxCell>
        <mxCell id="eeFlZnbKs4hJiipbl1_z-5" style="shape=tableRow;horizontal=0;startSize=0;swimlaneHead=0;swimlaneBody=0;fillColor=none;collapsible=0;dropTarget=0;points=[[0,0.5],[1,0.5]];portConstraint=eastwest;top=0;left=0;right=0;bottom=0;strokeColor=#788AA3;fontColor=#46495D;rounded=1;labelBackgroundColor=none;verticalAlign=middle;" parent="GqP4DYXTLEp6i3isbO8n-1139" vertex="1">
          <mxGeometry y="180" width="250" height="30" as="geometry" />
        </mxCell>
        <mxCell id="eeFlZnbKs4hJiipbl1_z-6" style="shape=partialRectangle;connectable=0;fillColor=none;top=0;left=0;bottom=0;right=0;editable=1;overflow=hidden;whiteSpace=wrap;html=1;strokeColor=#788AA3;fontColor=#46495D;rounded=1;labelBackgroundColor=none;" parent="eeFlZnbKs4hJiipbl1_z-5" vertex="1">
          <mxGeometry width="30" height="30" as="geometry">
            <mxRectangle width="30" height="30" as="alternateBounds" />
          </mxGeometry>
        </mxCell>
        <mxCell id="eeFlZnbKs4hJiipbl1_z-7" value="draws" style="shape=partialRectangle;connectable=0;fillColor=none;top=0;left=0;bottom=0;right=0;align=left;spacingLeft=6;overflow=hidden;whiteSpace=wrap;html=1;strokeColor=#788AA3;fontColor=#46495D;rounded=1;labelBackgroundColor=none;" parent="eeFlZnbKs4hJiipbl1_z-5" vertex="1">
          <mxGeometry x="30" width="120" height="30" as="geometry">
            <mxRectangle width="120" height="30" as="alternateBounds" />
          </mxGeometry>
        </mxCell>
        <mxCell id="eeFlZnbKs4hJiipbl1_z-8" value="INT" style="shape=partialRectangle;connectable=0;fillColor=none;top=0;left=0;bottom=0;right=0;align=left;spacingLeft=6;overflow=hidden;whiteSpace=wrap;html=1;strokeColor=#788AA3;fontColor=#46495D;rounded=1;labelBackgroundColor=none;verticalAlign=middle;" parent="eeFlZnbKs4hJiipbl1_z-5" vertex="1">
          <mxGeometry x="150" width="100" height="30" as="geometry">
            <mxRectangle width="100" height="30" as="alternateBounds" />
          </mxGeometry>
        </mxCell>
        <mxCell id="eeFlZnbKs4hJiipbl1_z-1" style="shape=tableRow;horizontal=0;startSize=0;swimlaneHead=0;swimlaneBody=0;fillColor=none;collapsible=0;dropTarget=0;points=[[0,0.5],[1,0.5]];portConstraint=eastwest;top=0;left=0;right=0;bottom=0;strokeColor=#788AA3;fontColor=#46495D;rounded=1;labelBackgroundColor=none;verticalAlign=middle;" parent="GqP4DYXTLEp6i3isbO8n-1139" vertex="1">
          <mxGeometry y="210" width="250" height="30" as="geometry" />
        </mxCell>
        <mxCell id="eeFlZnbKs4hJiipbl1_z-2" style="shape=partialRectangle;connectable=0;fillColor=none;top=0;left=0;bottom=0;right=0;editable=1;overflow=hidden;whiteSpace=wrap;html=1;strokeColor=#788AA3;fontColor=#46495D;rounded=1;labelBackgroundColor=none;" parent="eeFlZnbKs4hJiipbl1_z-1" vertex="1">
          <mxGeometry width="30" height="30" as="geometry">
            <mxRectangle width="30" height="30" as="alternateBounds" />
          </mxGeometry>
        </mxCell>
        <mxCell id="eeFlZnbKs4hJiipbl1_z-3" value="losses" style="shape=partialRectangle;connectable=0;fillColor=none;top=0;left=0;bottom=0;right=0;align=left;spacingLeft=6;overflow=hidden;whiteSpace=wrap;html=1;strokeColor=#788AA3;fontColor=#46495D;rounded=1;labelBackgroundColor=none;" parent="eeFlZnbKs4hJiipbl1_z-1" vertex="1">
          <mxGeometry x="30" width="120" height="30" as="geometry">
            <mxRectangle width="120" height="30" as="alternateBounds" />
          </mxGeometry>
        </mxCell>
        <mxCell id="eeFlZnbKs4hJiipbl1_z-4" value="INT" style="shape=partialRectangle;connectable=0;fillColor=none;top=0;left=0;bottom=0;right=0;align=left;spacingLeft=6;overflow=hidden;whiteSpace=wrap;html=1;strokeColor=#788AA3;fontColor=#46495D;rounded=1;labelBackgroundColor=none;verticalAlign=middle;" parent="eeFlZnbKs4hJiipbl1_z-1" vertex="1">
          <mxGeometry x="150" width="100" height="30" as="geometry">
            <mxRectangle width="100" height="30" as="alternateBounds" />
          </mxGeometry>
        </mxCell>
        <mxCell id="GqP4DYXTLEp6i3isbO8n-1160" style="shape=tableRow;horizontal=0;startSize=0;swimlaneHead=0;swimlaneBody=0;fillColor=none;collapsible=0;dropTarget=0;points=[[0,0.5],[1,0.5]];portConstraint=eastwest;top=0;left=0;right=0;bottom=0;strokeColor=#788AA3;fontColor=#46495D;rounded=1;labelBackgroundColor=none;verticalAlign=middle;" parent="GqP4DYXTLEp6i3isbO8n-1139" vertex="1">
          <mxGeometry y="240" width="250" height="30" as="geometry" />
        </mxCell>
        <mxCell id="GqP4DYXTLEp6i3isbO8n-1161" style="shape=partialRectangle;connectable=0;fillColor=none;top=0;left=0;bottom=0;right=0;editable=1;overflow=hidden;whiteSpace=wrap;html=1;strokeColor=#788AA3;fontColor=#46495D;rounded=1;labelBackgroundColor=none;" parent="GqP4DYXTLEp6i3isbO8n-1160" vertex="1">
          <mxGeometry width="30" height="30" as="geometry">
            <mxRectangle width="30" height="30" as="alternateBounds" />
          </mxGeometry>
        </mxCell>
        <mxCell id="GqP4DYXTLEp6i3isbO8n-1162" value="total_yellow_cards" style="shape=partialRectangle;connectable=0;fillColor=none;top=0;left=0;bottom=0;right=0;align=left;spacingLeft=6;overflow=hidden;whiteSpace=wrap;html=1;strokeColor=#788AA3;fontColor=#46495D;rounded=1;labelBackgroundColor=none;" parent="GqP4DYXTLEp6i3isbO8n-1160" vertex="1">
          <mxGeometry x="30" width="120" height="30" as="geometry">
            <mxRectangle width="120" height="30" as="alternateBounds" />
          </mxGeometry>
        </mxCell>
        <mxCell id="GqP4DYXTLEp6i3isbO8n-1163" value="INT" style="shape=partialRectangle;connectable=0;fillColor=none;top=0;left=0;bottom=0;right=0;align=left;spacingLeft=6;overflow=hidden;whiteSpace=wrap;html=1;strokeColor=#788AA3;fontColor=#46495D;rounded=1;labelBackgroundColor=none;verticalAlign=middle;" parent="GqP4DYXTLEp6i3isbO8n-1160" vertex="1">
          <mxGeometry x="150" width="100" height="30" as="geometry">
            <mxRectangle width="100" height="30" as="alternateBounds" />
          </mxGeometry>
        </mxCell>
        <mxCell id="GqP4DYXTLEp6i3isbO8n-1164" style="shape=tableRow;horizontal=0;startSize=0;swimlaneHead=0;swimlaneBody=0;fillColor=none;collapsible=0;dropTarget=0;points=[[0,0.5],[1,0.5]];portConstraint=eastwest;top=0;left=0;right=0;bottom=0;strokeColor=#788AA3;fontColor=#46495D;rounded=1;labelBackgroundColor=none;verticalAlign=middle;" parent="GqP4DYXTLEp6i3isbO8n-1139" vertex="1">
          <mxGeometry y="270" width="250" height="30" as="geometry" />
        </mxCell>
        <mxCell id="GqP4DYXTLEp6i3isbO8n-1165" style="shape=partialRectangle;connectable=0;fillColor=none;top=0;left=0;bottom=0;right=0;editable=1;overflow=hidden;whiteSpace=wrap;html=1;strokeColor=#788AA3;fontColor=#46495D;rounded=1;labelBackgroundColor=none;" parent="GqP4DYXTLEp6i3isbO8n-1164" vertex="1">
          <mxGeometry width="30" height="30" as="geometry">
            <mxRectangle width="30" height="30" as="alternateBounds" />
          </mxGeometry>
        </mxCell>
        <mxCell id="GqP4DYXTLEp6i3isbO8n-1166" value="total_red_cards" style="shape=partialRectangle;connectable=0;fillColor=none;top=0;left=0;bottom=0;right=0;align=left;spacingLeft=6;overflow=hidden;whiteSpace=wrap;html=1;strokeColor=#788AA3;fontColor=#46495D;rounded=1;labelBackgroundColor=none;" parent="GqP4DYXTLEp6i3isbO8n-1164" vertex="1">
          <mxGeometry x="30" width="120" height="30" as="geometry">
            <mxRectangle width="120" height="30" as="alternateBounds" />
          </mxGeometry>
        </mxCell>
        <mxCell id="GqP4DYXTLEp6i3isbO8n-1167" value="INT" style="shape=partialRectangle;connectable=0;fillColor=none;top=0;left=0;bottom=0;right=0;align=left;spacingLeft=6;overflow=hidden;whiteSpace=wrap;html=1;strokeColor=#788AA3;fontColor=#46495D;rounded=1;labelBackgroundColor=none;verticalAlign=middle;" parent="GqP4DYXTLEp6i3isbO8n-1164" vertex="1">
          <mxGeometry x="150" width="100" height="30" as="geometry">
            <mxRectangle width="100" height="30" as="alternateBounds" />
          </mxGeometry>
        </mxCell>
        <mxCell id="GqP4DYXTLEp6i3isbO8n-1168" value="stadiums" style="shape=table;startSize=30;container=1;collapsible=1;childLayout=tableLayout;fixedRows=1;rowLines=0;fontStyle=1;align=center;resizeLast=1;html=1;strokeColor=#788AA3;fontColor=#46495D;fillColor=#B2C9AB;rounded=1;labelBackgroundColor=none;" parent="1" vertex="1">
          <mxGeometry x="423" y="28" width="250" height="150" as="geometry" />
        </mxCell>
        <mxCell id="GqP4DYXTLEp6i3isbO8n-1169" value="" style="shape=tableRow;horizontal=0;startSize=0;swimlaneHead=0;swimlaneBody=0;fillColor=none;collapsible=0;dropTarget=0;points=[[0,0.5],[1,0.5]];portConstraint=eastwest;top=0;left=0;right=0;bottom=1;strokeColor=#788AA3;fontColor=#46495D;rounded=1;labelBackgroundColor=none;" parent="GqP4DYXTLEp6i3isbO8n-1168" vertex="1">
          <mxGeometry y="30" width="250" height="30" as="geometry" />
        </mxCell>
        <mxCell id="GqP4DYXTLEp6i3isbO8n-1170" value="PK" style="shape=partialRectangle;connectable=0;fillColor=none;top=0;left=0;bottom=0;right=0;fontStyle=1;overflow=hidden;whiteSpace=wrap;html=1;strokeColor=#788AA3;fontColor=#46495D;rounded=1;labelBackgroundColor=none;" parent="GqP4DYXTLEp6i3isbO8n-1169" vertex="1">
          <mxGeometry width="30" height="30" as="geometry">
            <mxRectangle width="30" height="30" as="alternateBounds" />
          </mxGeometry>
        </mxCell>
        <mxCell id="GqP4DYXTLEp6i3isbO8n-1171" value="stadium_id" style="shape=partialRectangle;connectable=0;fillColor=none;top=0;left=0;bottom=0;right=0;align=left;spacingLeft=6;fontStyle=1;overflow=hidden;whiteSpace=wrap;html=1;strokeColor=#788AA3;fontColor=#46495D;rounded=1;labelBackgroundColor=none;" parent="GqP4DYXTLEp6i3isbO8n-1169" vertex="1">
          <mxGeometry x="30" width="120" height="30" as="geometry">
            <mxRectangle width="120" height="30" as="alternateBounds" />
          </mxGeometry>
        </mxCell>
        <mxCell id="GqP4DYXTLEp6i3isbO8n-1172" value="INT" style="shape=partialRectangle;connectable=0;fillColor=none;top=0;left=0;bottom=0;right=0;align=left;spacingLeft=6;fontStyle=1;overflow=hidden;whiteSpace=wrap;html=1;strokeColor=#788AA3;fontColor=#46495D;rounded=1;labelBackgroundColor=none;" parent="GqP4DYXTLEp6i3isbO8n-1169" vertex="1">
          <mxGeometry x="150" width="100" height="30" as="geometry">
            <mxRectangle width="100" height="30" as="alternateBounds" />
          </mxGeometry>
        </mxCell>
        <mxCell id="GqP4DYXTLEp6i3isbO8n-1173" value="" style="shape=tableRow;horizontal=0;startSize=0;swimlaneHead=0;swimlaneBody=0;fillColor=none;collapsible=0;dropTarget=0;points=[[0,0.5],[1,0.5]];portConstraint=eastwest;top=0;left=0;right=0;bottom=0;strokeColor=#788AA3;fontColor=#46495D;rounded=1;labelBackgroundColor=none;" parent="GqP4DYXTLEp6i3isbO8n-1168" vertex="1">
          <mxGeometry y="60" width="250" height="30" as="geometry" />
        </mxCell>
        <mxCell id="GqP4DYXTLEp6i3isbO8n-1174" value="" style="shape=partialRectangle;connectable=0;fillColor=none;top=0;left=0;bottom=0;right=0;editable=1;overflow=hidden;whiteSpace=wrap;html=1;strokeColor=#788AA3;fontColor=#46495D;rounded=1;labelBackgroundColor=none;" parent="GqP4DYXTLEp6i3isbO8n-1173" vertex="1">
          <mxGeometry width="30" height="30" as="geometry">
            <mxRectangle width="30" height="30" as="alternateBounds" />
          </mxGeometry>
        </mxCell>
        <mxCell id="GqP4DYXTLEp6i3isbO8n-1175" value="stadium_name" style="shape=partialRectangle;connectable=0;fillColor=none;top=0;left=0;bottom=0;right=0;align=left;spacingLeft=6;overflow=hidden;whiteSpace=wrap;html=1;strokeColor=#788AA3;fontColor=#46495D;rounded=1;labelBackgroundColor=none;" parent="GqP4DYXTLEp6i3isbO8n-1173" vertex="1">
          <mxGeometry x="30" width="120" height="30" as="geometry">
            <mxRectangle width="120" height="30" as="alternateBounds" />
          </mxGeometry>
        </mxCell>
        <mxCell id="GqP4DYXTLEp6i3isbO8n-1176" value="VARCHAR(50)" style="shape=partialRectangle;connectable=0;fillColor=none;top=0;left=0;bottom=0;right=0;align=left;spacingLeft=6;overflow=hidden;whiteSpace=wrap;html=1;strokeColor=#788AA3;fontColor=#46495D;rounded=1;labelBackgroundColor=none;" parent="GqP4DYXTLEp6i3isbO8n-1173" vertex="1">
          <mxGeometry x="150" width="100" height="30" as="geometry">
            <mxRectangle width="100" height="30" as="alternateBounds" />
          </mxGeometry>
        </mxCell>
        <mxCell id="GqP4DYXTLEp6i3isbO8n-1177" style="shape=tableRow;horizontal=0;startSize=0;swimlaneHead=0;swimlaneBody=0;fillColor=none;collapsible=0;dropTarget=0;points=[[0,0.5],[1,0.5]];portConstraint=eastwest;top=0;left=0;right=0;bottom=0;strokeColor=#788AA3;fontColor=#46495D;rounded=1;labelBackgroundColor=none;" parent="GqP4DYXTLEp6i3isbO8n-1168" vertex="1">
          <mxGeometry y="90" width="250" height="30" as="geometry" />
        </mxCell>
        <mxCell id="GqP4DYXTLEp6i3isbO8n-1178" style="shape=partialRectangle;connectable=0;fillColor=none;top=0;left=0;bottom=0;right=0;editable=1;overflow=hidden;whiteSpace=wrap;html=1;strokeColor=#788AA3;fontColor=#46495D;rounded=1;labelBackgroundColor=none;" parent="GqP4DYXTLEp6i3isbO8n-1177" vertex="1">
          <mxGeometry width="30" height="30" as="geometry">
            <mxRectangle width="30" height="30" as="alternateBounds" />
          </mxGeometry>
        </mxCell>
        <mxCell id="GqP4DYXTLEp6i3isbO8n-1179" value="city" style="shape=partialRectangle;connectable=0;fillColor=none;top=0;left=0;bottom=0;right=0;align=left;spacingLeft=6;overflow=hidden;whiteSpace=wrap;html=1;strokeColor=#788AA3;fontColor=#46495D;rounded=1;labelBackgroundColor=none;" parent="GqP4DYXTLEp6i3isbO8n-1177" vertex="1">
          <mxGeometry x="30" width="120" height="30" as="geometry">
            <mxRectangle width="120" height="30" as="alternateBounds" />
          </mxGeometry>
        </mxCell>
        <mxCell id="GqP4DYXTLEp6i3isbO8n-1180" value="VARCHAR(50)" style="shape=partialRectangle;connectable=0;fillColor=none;top=0;left=0;bottom=0;right=0;align=left;spacingLeft=6;overflow=hidden;whiteSpace=wrap;html=1;strokeColor=#788AA3;fontColor=#46495D;rounded=1;labelBackgroundColor=none;" parent="GqP4DYXTLEp6i3isbO8n-1177" vertex="1">
          <mxGeometry x="150" width="100" height="30" as="geometry">
            <mxRectangle width="100" height="30" as="alternateBounds" />
          </mxGeometry>
        </mxCell>
        <mxCell id="gvynv8yCmGF_tzLQSsG1-1" style="shape=tableRow;horizontal=0;startSize=0;swimlaneHead=0;swimlaneBody=0;fillColor=none;collapsible=0;dropTarget=0;points=[[0,0.5],[1,0.5]];portConstraint=eastwest;top=0;left=0;right=0;bottom=0;strokeColor=#788AA3;fontColor=#46495D;rounded=1;labelBackgroundColor=none;" parent="GqP4DYXTLEp6i3isbO8n-1168" vertex="1">
          <mxGeometry y="120" width="250" height="30" as="geometry" />
        </mxCell>
        <mxCell id="gvynv8yCmGF_tzLQSsG1-2" style="shape=partialRectangle;connectable=0;fillColor=none;top=0;left=0;bottom=0;right=0;editable=1;overflow=hidden;whiteSpace=wrap;html=1;strokeColor=#788AA3;fontColor=#46495D;rounded=1;labelBackgroundColor=none;" parent="gvynv8yCmGF_tzLQSsG1-1" vertex="1">
          <mxGeometry width="30" height="30" as="geometry">
            <mxRectangle width="30" height="30" as="alternateBounds" />
          </mxGeometry>
        </mxCell>
        <mxCell id="gvynv8yCmGF_tzLQSsG1-3" value="capacity" style="shape=partialRectangle;connectable=0;fillColor=none;top=0;left=0;bottom=0;right=0;align=left;spacingLeft=6;overflow=hidden;whiteSpace=wrap;html=1;strokeColor=#788AA3;fontColor=#46495D;rounded=1;labelBackgroundColor=none;" parent="gvynv8yCmGF_tzLQSsG1-1" vertex="1">
          <mxGeometry x="30" width="120" height="30" as="geometry">
            <mxRectangle width="120" height="30" as="alternateBounds" />
          </mxGeometry>
        </mxCell>
        <mxCell id="gvynv8yCmGF_tzLQSsG1-4" value="INT" style="shape=partialRectangle;connectable=0;fillColor=none;top=0;left=0;bottom=0;right=0;align=left;spacingLeft=6;overflow=hidden;whiteSpace=wrap;html=1;strokeColor=#788AA3;fontColor=#46495D;rounded=1;labelBackgroundColor=none;" parent="gvynv8yCmGF_tzLQSsG1-1" vertex="1">
          <mxGeometry x="150" width="100" height="30" as="geometry">
            <mxRectangle width="100" height="30" as="alternateBounds" />
          </mxGeometry>
        </mxCell>
        <mxCell id="GqP4DYXTLEp6i3isbO8n-1185" value="coaches" style="shape=table;startSize=30;container=1;collapsible=1;childLayout=tableLayout;fixedRows=1;rowLines=0;fontStyle=1;align=center;resizeLast=1;html=1;strokeColor=#788AA3;fontColor=#46495D;fillColor=#B2C9AB;rounded=1;labelBackgroundColor=none;" parent="1" vertex="1">
          <mxGeometry x="798" y="73" width="250" height="360" as="geometry" />
        </mxCell>
        <mxCell id="GqP4DYXTLEp6i3isbO8n-1186" value="" style="shape=tableRow;horizontal=0;startSize=0;swimlaneHead=0;swimlaneBody=0;fillColor=none;collapsible=0;dropTarget=0;points=[[0,0.5],[1,0.5]];portConstraint=eastwest;top=0;left=0;right=0;bottom=1;strokeColor=#788AA3;fontColor=#46495D;rounded=1;labelBackgroundColor=none;" parent="GqP4DYXTLEp6i3isbO8n-1185" vertex="1">
          <mxGeometry y="30" width="250" height="30" as="geometry" />
        </mxCell>
        <mxCell id="GqP4DYXTLEp6i3isbO8n-1187" value="PK" style="shape=partialRectangle;connectable=0;fillColor=none;top=0;left=0;bottom=0;right=0;fontStyle=1;overflow=hidden;whiteSpace=wrap;html=1;strokeColor=#788AA3;fontColor=#46495D;rounded=1;labelBackgroundColor=none;" parent="GqP4DYXTLEp6i3isbO8n-1186" vertex="1">
          <mxGeometry width="30" height="30" as="geometry">
            <mxRectangle width="30" height="30" as="alternateBounds" />
          </mxGeometry>
        </mxCell>
        <mxCell id="GqP4DYXTLEp6i3isbO8n-1188" value="coach_id" style="shape=partialRectangle;connectable=0;fillColor=none;top=0;left=0;bottom=0;right=0;align=left;spacingLeft=6;fontStyle=1;overflow=hidden;whiteSpace=wrap;html=1;strokeColor=#788AA3;fontColor=#46495D;rounded=1;labelBackgroundColor=none;" parent="GqP4DYXTLEp6i3isbO8n-1186" vertex="1">
          <mxGeometry x="30" width="120" height="30" as="geometry">
            <mxRectangle width="120" height="30" as="alternateBounds" />
          </mxGeometry>
        </mxCell>
        <mxCell id="GqP4DYXTLEp6i3isbO8n-1189" value="INT" style="shape=partialRectangle;connectable=0;fillColor=none;top=0;left=0;bottom=0;right=0;align=left;spacingLeft=6;fontStyle=1;overflow=hidden;whiteSpace=wrap;html=1;strokeColor=#788AA3;fontColor=#46495D;rounded=1;labelBackgroundColor=none;" parent="GqP4DYXTLEp6i3isbO8n-1186" vertex="1">
          <mxGeometry x="150" width="100" height="30" as="geometry">
            <mxRectangle width="100" height="30" as="alternateBounds" />
          </mxGeometry>
        </mxCell>
        <mxCell id="GqP4DYXTLEp6i3isbO8n-1190" value="" style="shape=tableRow;horizontal=0;startSize=0;swimlaneHead=0;swimlaneBody=0;fillColor=none;collapsible=0;dropTarget=0;points=[[0,0.5],[1,0.5]];portConstraint=eastwest;top=0;left=0;right=0;bottom=0;strokeColor=#788AA3;fontColor=#46495D;rounded=1;labelBackgroundColor=none;" parent="GqP4DYXTLEp6i3isbO8n-1185" vertex="1">
          <mxGeometry y="60" width="250" height="30" as="geometry" />
        </mxCell>
        <mxCell id="GqP4DYXTLEp6i3isbO8n-1191" value="" style="shape=partialRectangle;connectable=0;fillColor=none;top=0;left=0;bottom=0;right=0;editable=1;overflow=hidden;whiteSpace=wrap;html=1;strokeColor=#788AA3;fontColor=#46495D;rounded=1;labelBackgroundColor=none;" parent="GqP4DYXTLEp6i3isbO8n-1190" vertex="1">
          <mxGeometry width="30" height="30" as="geometry">
            <mxRectangle width="30" height="30" as="alternateBounds" />
          </mxGeometry>
        </mxCell>
        <mxCell id="GqP4DYXTLEp6i3isbO8n-1192" value="first_name" style="shape=partialRectangle;connectable=0;fillColor=none;top=0;left=0;bottom=0;right=0;align=left;spacingLeft=6;overflow=hidden;whiteSpace=wrap;html=1;strokeColor=#788AA3;fontColor=#46495D;rounded=1;labelBackgroundColor=none;" parent="GqP4DYXTLEp6i3isbO8n-1190" vertex="1">
          <mxGeometry x="30" width="120" height="30" as="geometry">
            <mxRectangle width="120" height="30" as="alternateBounds" />
          </mxGeometry>
        </mxCell>
        <mxCell id="GqP4DYXTLEp6i3isbO8n-1193" value="NVARCHAR(50)" style="shape=partialRectangle;connectable=0;fillColor=none;top=0;left=0;bottom=0;right=0;align=left;spacingLeft=6;overflow=hidden;whiteSpace=wrap;html=1;strokeColor=#788AA3;fontColor=#46495D;rounded=1;labelBackgroundColor=none;" parent="GqP4DYXTLEp6i3isbO8n-1190" vertex="1">
          <mxGeometry x="150" width="100" height="30" as="geometry">
            <mxRectangle width="100" height="30" as="alternateBounds" />
          </mxGeometry>
        </mxCell>
        <mxCell id="GqP4DYXTLEp6i3isbO8n-1194" style="shape=tableRow;horizontal=0;startSize=0;swimlaneHead=0;swimlaneBody=0;fillColor=none;collapsible=0;dropTarget=0;points=[[0,0.5],[1,0.5]];portConstraint=eastwest;top=0;left=0;right=0;bottom=0;strokeColor=#788AA3;fontColor=#46495D;rounded=1;labelBackgroundColor=none;" parent="GqP4DYXTLEp6i3isbO8n-1185" vertex="1">
          <mxGeometry y="90" width="250" height="30" as="geometry" />
        </mxCell>
        <mxCell id="GqP4DYXTLEp6i3isbO8n-1195" value="" style="shape=partialRectangle;connectable=0;fillColor=none;top=0;left=0;bottom=0;right=0;editable=1;overflow=hidden;whiteSpace=wrap;html=1;strokeColor=#788AA3;fontColor=#46495D;rounded=1;labelBackgroundColor=none;" parent="GqP4DYXTLEp6i3isbO8n-1194" vertex="1">
          <mxGeometry width="30" height="30" as="geometry">
            <mxRectangle width="30" height="30" as="alternateBounds" />
          </mxGeometry>
        </mxCell>
        <mxCell id="GqP4DYXTLEp6i3isbO8n-1196" value="last_name" style="shape=partialRectangle;connectable=0;fillColor=none;top=0;left=0;bottom=0;right=0;align=left;spacingLeft=6;overflow=hidden;whiteSpace=wrap;html=1;strokeColor=#788AA3;fontColor=#46495D;rounded=1;labelBackgroundColor=none;" parent="GqP4DYXTLEp6i3isbO8n-1194" vertex="1">
          <mxGeometry x="30" width="120" height="30" as="geometry">
            <mxRectangle width="120" height="30" as="alternateBounds" />
          </mxGeometry>
        </mxCell>
        <mxCell id="GqP4DYXTLEp6i3isbO8n-1197" value="NVARCHAR(50)" style="shape=partialRectangle;connectable=0;fillColor=none;top=0;left=0;bottom=0;right=0;align=left;spacingLeft=6;overflow=hidden;whiteSpace=wrap;html=1;strokeColor=#788AA3;fontColor=#46495D;rounded=1;labelBackgroundColor=none;" parent="GqP4DYXTLEp6i3isbO8n-1194" vertex="1">
          <mxGeometry x="150" width="100" height="30" as="geometry">
            <mxRectangle width="100" height="30" as="alternateBounds" />
          </mxGeometry>
        </mxCell>
        <mxCell id="GqP4DYXTLEp6i3isbO8n-1198" style="shape=tableRow;horizontal=0;startSize=0;swimlaneHead=0;swimlaneBody=0;fillColor=none;collapsible=0;dropTarget=0;points=[[0,0.5],[1,0.5]];portConstraint=eastwest;top=0;left=0;right=0;bottom=0;strokeColor=#788AA3;fontColor=#46495D;rounded=1;labelBackgroundColor=none;verticalAlign=middle;" parent="GqP4DYXTLEp6i3isbO8n-1185" vertex="1">
          <mxGeometry y="120" width="250" height="30" as="geometry" />
        </mxCell>
        <mxCell id="GqP4DYXTLEp6i3isbO8n-1199" value="" style="shape=partialRectangle;connectable=0;fillColor=none;top=0;left=0;bottom=0;right=0;editable=1;overflow=hidden;whiteSpace=wrap;html=1;strokeColor=#788AA3;fontColor=#46495D;rounded=1;labelBackgroundColor=none;" parent="GqP4DYXTLEp6i3isbO8n-1198" vertex="1">
          <mxGeometry width="30" height="30" as="geometry">
            <mxRectangle width="30" height="30" as="alternateBounds" />
          </mxGeometry>
        </mxCell>
        <mxCell id="GqP4DYXTLEp6i3isbO8n-1200" value="country" style="shape=partialRectangle;connectable=0;fillColor=none;top=0;left=0;bottom=0;right=0;align=left;spacingLeft=6;overflow=hidden;whiteSpace=wrap;html=1;strokeColor=#788AA3;fontColor=#46495D;rounded=1;labelBackgroundColor=none;" parent="GqP4DYXTLEp6i3isbO8n-1198" vertex="1">
          <mxGeometry x="30" width="120" height="30" as="geometry">
            <mxRectangle width="120" height="30" as="alternateBounds" />
          </mxGeometry>
        </mxCell>
        <mxCell id="GqP4DYXTLEp6i3isbO8n-1201" value="VARCHAR(50)" style="shape=partialRectangle;connectable=0;fillColor=none;top=0;left=0;bottom=0;right=0;align=left;spacingLeft=6;overflow=hidden;whiteSpace=wrap;html=1;strokeColor=#788AA3;fontColor=#46495D;rounded=1;labelBackgroundColor=none;verticalAlign=middle;" parent="GqP4DYXTLEp6i3isbO8n-1198" vertex="1">
          <mxGeometry x="150" width="100" height="30" as="geometry">
            <mxRectangle width="100" height="30" as="alternateBounds" />
          </mxGeometry>
        </mxCell>
        <mxCell id="GqP4DYXTLEp6i3isbO8n-1202" style="shape=tableRow;horizontal=0;startSize=0;swimlaneHead=0;swimlaneBody=0;fillColor=none;collapsible=0;dropTarget=0;points=[[0,0.5],[1,0.5]];portConstraint=eastwest;top=0;left=0;right=0;bottom=0;strokeColor=#788AA3;fontColor=#46495D;rounded=1;labelBackgroundColor=none;verticalAlign=middle;" parent="GqP4DYXTLEp6i3isbO8n-1185" vertex="1">
          <mxGeometry y="150" width="250" height="30" as="geometry" />
        </mxCell>
        <mxCell id="GqP4DYXTLEp6i3isbO8n-1203" value="" style="shape=partialRectangle;connectable=0;fillColor=none;top=0;left=0;bottom=0;right=0;editable=1;overflow=hidden;whiteSpace=wrap;html=1;strokeColor=#788AA3;fontColor=#46495D;rounded=1;labelBackgroundColor=none;" parent="GqP4DYXTLEp6i3isbO8n-1202" vertex="1">
          <mxGeometry width="30" height="30" as="geometry">
            <mxRectangle width="30" height="30" as="alternateBounds" />
          </mxGeometry>
        </mxCell>
        <mxCell id="GqP4DYXTLEp6i3isbO8n-1204" value="birth" style="shape=partialRectangle;connectable=0;fillColor=none;top=0;left=0;bottom=0;right=0;align=left;spacingLeft=6;overflow=hidden;whiteSpace=wrap;html=1;strokeColor=#788AA3;fontColor=#46495D;rounded=1;labelBackgroundColor=none;" parent="GqP4DYXTLEp6i3isbO8n-1202" vertex="1">
          <mxGeometry x="30" width="120" height="30" as="geometry">
            <mxRectangle width="120" height="30" as="alternateBounds" />
          </mxGeometry>
        </mxCell>
        <mxCell id="GqP4DYXTLEp6i3isbO8n-1205" value="DATE" style="shape=partialRectangle;connectable=0;fillColor=none;top=0;left=0;bottom=0;right=0;align=left;spacingLeft=6;overflow=hidden;whiteSpace=wrap;html=1;strokeColor=#788AA3;fontColor=#46495D;rounded=1;labelBackgroundColor=none;verticalAlign=middle;" parent="GqP4DYXTLEp6i3isbO8n-1202" vertex="1">
          <mxGeometry x="150" width="100" height="30" as="geometry">
            <mxRectangle width="100" height="30" as="alternateBounds" />
          </mxGeometry>
        </mxCell>
        <mxCell id="GqP4DYXTLEp6i3isbO8n-1206" style="shape=tableRow;horizontal=0;startSize=0;swimlaneHead=0;swimlaneBody=0;fillColor=none;collapsible=0;dropTarget=0;points=[[0,0.5],[1,0.5]];portConstraint=eastwest;top=0;left=0;right=0;bottom=0;strokeColor=#788AA3;fontColor=#46495D;rounded=1;labelBackgroundColor=none;verticalAlign=middle;" parent="GqP4DYXTLEp6i3isbO8n-1185" vertex="1">
          <mxGeometry y="180" width="250" height="30" as="geometry" />
        </mxCell>
        <mxCell id="GqP4DYXTLEp6i3isbO8n-1207" style="shape=partialRectangle;connectable=0;fillColor=none;top=0;left=0;bottom=0;right=0;editable=1;overflow=hidden;whiteSpace=wrap;html=1;strokeColor=#788AA3;fontColor=#46495D;rounded=1;labelBackgroundColor=none;" parent="GqP4DYXTLEp6i3isbO8n-1206" vertex="1">
          <mxGeometry width="30" height="30" as="geometry">
            <mxRectangle width="30" height="30" as="alternateBounds" />
          </mxGeometry>
        </mxCell>
        <mxCell id="GqP4DYXTLEp6i3isbO8n-1208" value="status" style="shape=partialRectangle;connectable=0;fillColor=none;top=0;left=0;bottom=0;right=0;align=left;spacingLeft=6;overflow=hidden;whiteSpace=wrap;html=1;strokeColor=#788AA3;fontColor=#46495D;rounded=1;labelBackgroundColor=none;" parent="GqP4DYXTLEp6i3isbO8n-1206" vertex="1">
          <mxGeometry x="30" width="120" height="30" as="geometry">
            <mxRectangle width="120" height="30" as="alternateBounds" />
          </mxGeometry>
        </mxCell>
        <mxCell id="GqP4DYXTLEp6i3isbO8n-1209" value="VARCHAR(10)" style="shape=partialRectangle;connectable=0;fillColor=none;top=0;left=0;bottom=0;right=0;align=left;spacingLeft=6;overflow=hidden;whiteSpace=wrap;html=1;strokeColor=#788AA3;fontColor=#46495D;rounded=1;labelBackgroundColor=none;verticalAlign=middle;" parent="GqP4DYXTLEp6i3isbO8n-1206" vertex="1">
          <mxGeometry x="150" width="100" height="30" as="geometry">
            <mxRectangle width="100" height="30" as="alternateBounds" />
          </mxGeometry>
        </mxCell>
        <mxCell id="m6bh8m1xl0rN3810Hj4Z-1" style="shape=tableRow;horizontal=0;startSize=0;swimlaneHead=0;swimlaneBody=0;fillColor=none;collapsible=0;dropTarget=0;points=[[0,0.5],[1,0.5]];portConstraint=eastwest;top=0;left=0;right=0;bottom=0;strokeColor=#788AA3;fontColor=#46495D;rounded=1;labelBackgroundColor=none;verticalAlign=middle;" parent="GqP4DYXTLEp6i3isbO8n-1185" vertex="1">
          <mxGeometry y="210" width="250" height="30" as="geometry" />
        </mxCell>
        <mxCell id="m6bh8m1xl0rN3810Hj4Z-2" value="FK" style="shape=partialRectangle;connectable=0;fillColor=none;top=0;left=0;bottom=0;right=0;editable=1;overflow=hidden;whiteSpace=wrap;html=1;strokeColor=#788AA3;fontColor=#46495D;rounded=1;labelBackgroundColor=none;" parent="m6bh8m1xl0rN3810Hj4Z-1" vertex="1">
          <mxGeometry width="30" height="30" as="geometry">
            <mxRectangle width="30" height="30" as="alternateBounds" />
          </mxGeometry>
        </mxCell>
        <mxCell id="m6bh8m1xl0rN3810Hj4Z-3" value="last_epl_team_id" style="shape=partialRectangle;connectable=0;fillColor=none;top=0;left=0;bottom=0;right=0;align=left;spacingLeft=6;overflow=hidden;whiteSpace=wrap;html=1;strokeColor=#788AA3;fontColor=#46495D;rounded=1;labelBackgroundColor=none;" parent="m6bh8m1xl0rN3810Hj4Z-1" vertex="1">
          <mxGeometry x="30" width="120" height="30" as="geometry">
            <mxRectangle width="120" height="30" as="alternateBounds" />
          </mxGeometry>
        </mxCell>
        <mxCell id="m6bh8m1xl0rN3810Hj4Z-4" value="INT" style="shape=partialRectangle;connectable=0;fillColor=none;top=0;left=0;bottom=0;right=0;align=left;spacingLeft=6;overflow=hidden;whiteSpace=wrap;html=1;strokeColor=#788AA3;fontColor=#46495D;rounded=1;labelBackgroundColor=none;verticalAlign=middle;" parent="m6bh8m1xl0rN3810Hj4Z-1" vertex="1">
          <mxGeometry x="150" width="100" height="30" as="geometry">
            <mxRectangle width="100" height="30" as="alternateBounds" />
          </mxGeometry>
        </mxCell>
        <mxCell id="GqP4DYXTLEp6i3isbO8n-1210" style="shape=tableRow;horizontal=0;startSize=0;swimlaneHead=0;swimlaneBody=0;fillColor=none;collapsible=0;dropTarget=0;points=[[0,0.5],[1,0.5]];portConstraint=eastwest;top=0;left=0;right=0;bottom=0;strokeColor=#788AA3;fontColor=#46495D;rounded=1;labelBackgroundColor=none;verticalAlign=middle;" parent="GqP4DYXTLEp6i3isbO8n-1185" vertex="1">
          <mxGeometry y="240" width="250" height="30" as="geometry" />
        </mxCell>
        <mxCell id="GqP4DYXTLEp6i3isbO8n-1211" style="shape=partialRectangle;connectable=0;fillColor=none;top=0;left=0;bottom=0;right=0;editable=1;overflow=hidden;whiteSpace=wrap;html=1;strokeColor=#788AA3;fontColor=#46495D;rounded=1;labelBackgroundColor=none;" parent="GqP4DYXTLEp6i3isbO8n-1210" vertex="1">
          <mxGeometry width="30" height="30" as="geometry">
            <mxRectangle width="30" height="30" as="alternateBounds" />
          </mxGeometry>
        </mxCell>
        <mxCell id="GqP4DYXTLEp6i3isbO8n-1212" value="matches" style="shape=partialRectangle;connectable=0;fillColor=none;top=0;left=0;bottom=0;right=0;align=left;spacingLeft=6;overflow=hidden;whiteSpace=wrap;html=1;strokeColor=#788AA3;fontColor=#46495D;rounded=1;labelBackgroundColor=none;" parent="GqP4DYXTLEp6i3isbO8n-1210" vertex="1">
          <mxGeometry x="30" width="120" height="30" as="geometry">
            <mxRectangle width="120" height="30" as="alternateBounds" />
          </mxGeometry>
        </mxCell>
        <mxCell id="GqP4DYXTLEp6i3isbO8n-1213" value="INT" style="shape=partialRectangle;connectable=0;fillColor=none;top=0;left=0;bottom=0;right=0;align=left;spacingLeft=6;overflow=hidden;whiteSpace=wrap;html=1;strokeColor=#788AA3;fontColor=#46495D;rounded=1;labelBackgroundColor=none;verticalAlign=middle;" parent="GqP4DYXTLEp6i3isbO8n-1210" vertex="1">
          <mxGeometry x="150" width="100" height="30" as="geometry">
            <mxRectangle width="100" height="30" as="alternateBounds" />
          </mxGeometry>
        </mxCell>
        <mxCell id="GqP4DYXTLEp6i3isbO8n-1214" style="shape=tableRow;horizontal=0;startSize=0;swimlaneHead=0;swimlaneBody=0;fillColor=none;collapsible=0;dropTarget=0;points=[[0,0.5],[1,0.5]];portConstraint=eastwest;top=0;left=0;right=0;bottom=0;strokeColor=#788AA3;fontColor=#46495D;rounded=1;labelBackgroundColor=none;verticalAlign=middle;" parent="GqP4DYXTLEp6i3isbO8n-1185" vertex="1">
          <mxGeometry y="270" width="250" height="30" as="geometry" />
        </mxCell>
        <mxCell id="GqP4DYXTLEp6i3isbO8n-1215" style="shape=partialRectangle;connectable=0;fillColor=none;top=0;left=0;bottom=0;right=0;editable=1;overflow=hidden;whiteSpace=wrap;html=1;strokeColor=#788AA3;fontColor=#46495D;rounded=1;labelBackgroundColor=none;" parent="GqP4DYXTLEp6i3isbO8n-1214" vertex="1">
          <mxGeometry width="30" height="30" as="geometry">
            <mxRectangle width="30" height="30" as="alternateBounds" />
          </mxGeometry>
        </mxCell>
        <mxCell id="GqP4DYXTLEp6i3isbO8n-1216" value="wins" style="shape=partialRectangle;connectable=0;fillColor=none;top=0;left=0;bottom=0;right=0;align=left;spacingLeft=6;overflow=hidden;whiteSpace=wrap;html=1;strokeColor=#788AA3;fontColor=#46495D;rounded=1;labelBackgroundColor=none;" parent="GqP4DYXTLEp6i3isbO8n-1214" vertex="1">
          <mxGeometry x="30" width="120" height="30" as="geometry">
            <mxRectangle width="120" height="30" as="alternateBounds" />
          </mxGeometry>
        </mxCell>
        <mxCell id="GqP4DYXTLEp6i3isbO8n-1217" value="INT" style="shape=partialRectangle;connectable=0;fillColor=none;top=0;left=0;bottom=0;right=0;align=left;spacingLeft=6;overflow=hidden;whiteSpace=wrap;html=1;strokeColor=#788AA3;fontColor=#46495D;rounded=1;labelBackgroundColor=none;verticalAlign=middle;" parent="GqP4DYXTLEp6i3isbO8n-1214" vertex="1">
          <mxGeometry x="150" width="100" height="30" as="geometry">
            <mxRectangle width="100" height="30" as="alternateBounds" />
          </mxGeometry>
        </mxCell>
        <mxCell id="GqP4DYXTLEp6i3isbO8n-1218" style="shape=tableRow;horizontal=0;startSize=0;swimlaneHead=0;swimlaneBody=0;fillColor=none;collapsible=0;dropTarget=0;points=[[0,0.5],[1,0.5]];portConstraint=eastwest;top=0;left=0;right=0;bottom=0;strokeColor=#788AA3;fontColor=#46495D;rounded=1;labelBackgroundColor=none;verticalAlign=middle;" parent="GqP4DYXTLEp6i3isbO8n-1185" vertex="1">
          <mxGeometry y="300" width="250" height="30" as="geometry" />
        </mxCell>
        <mxCell id="GqP4DYXTLEp6i3isbO8n-1219" style="shape=partialRectangle;connectable=0;fillColor=none;top=0;left=0;bottom=0;right=0;editable=1;overflow=hidden;whiteSpace=wrap;html=1;strokeColor=#788AA3;fontColor=#46495D;rounded=1;labelBackgroundColor=none;" parent="GqP4DYXTLEp6i3isbO8n-1218" vertex="1">
          <mxGeometry width="30" height="30" as="geometry">
            <mxRectangle width="30" height="30" as="alternateBounds" />
          </mxGeometry>
        </mxCell>
        <mxCell id="GqP4DYXTLEp6i3isbO8n-1220" value="draws" style="shape=partialRectangle;connectable=0;fillColor=none;top=0;left=0;bottom=0;right=0;align=left;spacingLeft=6;overflow=hidden;whiteSpace=wrap;html=1;strokeColor=#788AA3;fontColor=#46495D;rounded=1;labelBackgroundColor=none;" parent="GqP4DYXTLEp6i3isbO8n-1218" vertex="1">
          <mxGeometry x="30" width="120" height="30" as="geometry">
            <mxRectangle width="120" height="30" as="alternateBounds" />
          </mxGeometry>
        </mxCell>
        <mxCell id="GqP4DYXTLEp6i3isbO8n-1221" value="INT" style="shape=partialRectangle;connectable=0;fillColor=none;top=0;left=0;bottom=0;right=0;align=left;spacingLeft=6;overflow=hidden;whiteSpace=wrap;html=1;strokeColor=#788AA3;fontColor=#46495D;rounded=1;labelBackgroundColor=none;verticalAlign=middle;" parent="GqP4DYXTLEp6i3isbO8n-1218" vertex="1">
          <mxGeometry x="150" width="100" height="30" as="geometry">
            <mxRectangle width="100" height="30" as="alternateBounds" />
          </mxGeometry>
        </mxCell>
        <mxCell id="GqP4DYXTLEp6i3isbO8n-1222" style="shape=tableRow;horizontal=0;startSize=0;swimlaneHead=0;swimlaneBody=0;fillColor=none;collapsible=0;dropTarget=0;points=[[0,0.5],[1,0.5]];portConstraint=eastwest;top=0;left=0;right=0;bottom=0;strokeColor=#788AA3;fontColor=#46495D;rounded=1;labelBackgroundColor=none;verticalAlign=middle;" parent="GqP4DYXTLEp6i3isbO8n-1185" vertex="1">
          <mxGeometry y="330" width="250" height="30" as="geometry" />
        </mxCell>
        <mxCell id="GqP4DYXTLEp6i3isbO8n-1223" style="shape=partialRectangle;connectable=0;fillColor=none;top=0;left=0;bottom=0;right=0;editable=1;overflow=hidden;whiteSpace=wrap;html=1;strokeColor=#788AA3;fontColor=#46495D;rounded=1;labelBackgroundColor=none;" parent="GqP4DYXTLEp6i3isbO8n-1222" vertex="1">
          <mxGeometry width="30" height="30" as="geometry">
            <mxRectangle width="30" height="30" as="alternateBounds" />
          </mxGeometry>
        </mxCell>
        <mxCell id="GqP4DYXTLEp6i3isbO8n-1224" value="losses" style="shape=partialRectangle;connectable=0;fillColor=none;top=0;left=0;bottom=0;right=0;align=left;spacingLeft=6;overflow=hidden;whiteSpace=wrap;html=1;strokeColor=#788AA3;fontColor=#46495D;rounded=1;labelBackgroundColor=none;" parent="GqP4DYXTLEp6i3isbO8n-1222" vertex="1">
          <mxGeometry x="30" width="120" height="30" as="geometry">
            <mxRectangle width="120" height="30" as="alternateBounds" />
          </mxGeometry>
        </mxCell>
        <mxCell id="GqP4DYXTLEp6i3isbO8n-1225" value="INT" style="shape=partialRectangle;connectable=0;fillColor=none;top=0;left=0;bottom=0;right=0;align=left;spacingLeft=6;overflow=hidden;whiteSpace=wrap;html=1;strokeColor=#788AA3;fontColor=#46495D;rounded=1;labelBackgroundColor=none;verticalAlign=middle;" parent="GqP4DYXTLEp6i3isbO8n-1222" vertex="1">
          <mxGeometry x="150" width="100" height="30" as="geometry">
            <mxRectangle width="100" height="30" as="alternateBounds" />
          </mxGeometry>
        </mxCell>
        <mxCell id="GqP4DYXTLEp6i3isbO8n-1228" value="" style="edgeStyle=orthogonalEdgeStyle;fontSize=12;html=1;endArrow=ERoneToMany;startArrow=ERmandOne;rounded=0;strokeColor=#788AA3;fontColor=#46495D;fillColor=#B2C9AB;exitX=1;exitY=0.5;exitDx=0;exitDy=0;entryX=1;entryY=0.5;entryDx=0;entryDy=0;" parent="1" source="GqP4DYXTLEp6i3isbO8n-1169" target="GqP4DYXTLEp6i3isbO8n-1020" edge="1">
          <mxGeometry width="100" height="100" relative="1" as="geometry">
            <mxPoint x="473" y="421" as="sourcePoint" />
            <mxPoint x="573" y="321" as="targetPoint" />
            <Array as="points">
              <mxPoint x="710" y="73" />
              <mxPoint x="710" y="413" />
            </Array>
          </mxGeometry>
        </mxCell>
        <mxCell id="GqP4DYXTLEp6i3isbO8n-1229" value="" style="fontSize=12;html=1;endArrow=ERoneToMany;startArrow=ERmandOne;rounded=0;strokeColor=#788AA3;fontColor=#46495D;fillColor=#B2C9AB;exitX=1;exitY=0.5;exitDx=0;exitDy=0;entryX=0;entryY=0.5;entryDx=0;entryDy=0;edgeStyle=elbowEdgeStyle;" parent="1" source="GqP4DYXTLEp6i3isbO8n-1111" target="GqP4DYXTLEp6i3isbO8n-1032" edge="1">
          <mxGeometry width="100" height="100" relative="1" as="geometry">
            <mxPoint x="473" y="421" as="sourcePoint" />
            <mxPoint x="573" y="321" as="targetPoint" />
            <Array as="points">
              <mxPoint x="385" y="313" />
            </Array>
          </mxGeometry>
        </mxCell>
        <mxCell id="GqP4DYXTLEp6i3isbO8n-1231" value="" style="fontSize=12;html=1;endArrow=ERoneToMany;startArrow=ERmandOne;rounded=0;strokeColor=#788AA3;fontColor=#46495D;fillColor=#B2C9AB;exitX=0;exitY=0.5;exitDx=0;exitDy=0;entryX=1;entryY=0.5;entryDx=0;entryDy=0;edgeStyle=orthogonalEdgeStyle;" parent="1" source="GqP4DYXTLEp6i3isbO8n-1140" target="GqP4DYXTLEp6i3isbO8n-1004" edge="1">
          <mxGeometry width="100" height="100" relative="1" as="geometry">
            <mxPoint x="473" y="421" as="sourcePoint" />
            <mxPoint x="573" y="321" as="targetPoint" />
            <Array as="points">
              <mxPoint x="750" y="518" />
              <mxPoint x="750" y="293" />
            </Array>
          </mxGeometry>
        </mxCell>
        <mxCell id="GqP4DYXTLEp6i3isbO8n-1232" value="" style="fontSize=12;html=1;endArrow=ERoneToMany;startArrow=ERmandOne;rounded=0;strokeColor=#788AA3;fontColor=#46495D;fillColor=#B2C9AB;exitX=0;exitY=0.5;exitDx=0;exitDy=0;entryX=1;entryY=0.5;entryDx=0;entryDy=0;edgeStyle=orthogonalEdgeStyle;" parent="1" source="GqP4DYXTLEp6i3isbO8n-1140" target="GqP4DYXTLEp6i3isbO8n-1008" edge="1">
          <mxGeometry width="100" height="100" relative="1" as="geometry">
            <mxPoint x="313" y="201" as="sourcePoint" />
            <mxPoint x="423" y="351" as="targetPoint" />
            <Array as="points">
              <mxPoint x="770" y="518" />
              <mxPoint x="770" y="323" />
            </Array>
          </mxGeometry>
        </mxCell>
        <mxCell id="GqP4DYXTLEp6i3isbO8n-1233" value="" style="edgeStyle=elbowEdgeStyle;fontSize=12;html=1;endArrow=ERoneToMany;startArrow=ERmandOne;rounded=0;strokeColor=#788AA3;fontColor=#46495D;fillColor=#B2C9AB;exitX=1;exitY=0.5;exitDx=0;exitDy=0;entryX=1;entryY=0.5;entryDx=0;entryDy=0;" parent="1" source="GqP4DYXTLEp6i3isbO8n-1000" target="GqP4DYXTLEp6i3isbO8n-1090" edge="1">
          <mxGeometry width="100" height="100" relative="1" as="geometry">
            <mxPoint x="473" y="421" as="sourcePoint" />
            <mxPoint x="573" y="321" as="targetPoint" />
            <Array as="points">
              <mxPoint x="730" y="460" />
            </Array>
          </mxGeometry>
        </mxCell>
        <mxCell id="GqP4DYXTLEp6i3isbO8n-1236" value="" style="edgeStyle=elbowEdgeStyle;fontSize=12;html=1;endArrow=ERoneToMany;startArrow=ERmandOne;rounded=0;strokeColor=#788AA3;fontColor=#46495D;fillColor=#B2C9AB;exitX=1;exitY=0.5;exitDx=0;exitDy=0;entryX=0;entryY=0.5;entryDx=0;entryDy=0;" parent="1" source="GqP4DYXTLEp6i3isbO8n-1041" target="GqP4DYXTLEp6i3isbO8n-1094" edge="1">
          <mxGeometry width="100" height="100" relative="1" as="geometry">
            <mxPoint x="473" y="421" as="sourcePoint" />
            <mxPoint x="573" y="321" as="targetPoint" />
            <Array as="points">
              <mxPoint x="363" y="561" />
            </Array>
          </mxGeometry>
        </mxCell>
        <mxCell id="GqP4DYXTLEp6i3isbO8n-1237" value="" style="edgeStyle=elbowEdgeStyle;fontSize=12;html=1;endArrow=ERoneToMany;startArrow=ERmandOne;rounded=0;strokeColor=#788AA3;fontColor=#46495D;fillColor=#B2C9AB;exitX=1;exitY=0.5;exitDx=0;exitDy=0;entryX=0;entryY=0.5;entryDx=0;entryDy=0;" parent="1" source="GqP4DYXTLEp6i3isbO8n-1041" target="GqP4DYXTLEp6i3isbO8n-1098" edge="1">
          <mxGeometry width="100" height="100" relative="1" as="geometry">
            <mxPoint x="323" y="436" as="sourcePoint" />
            <mxPoint x="433" y="706" as="targetPoint" />
            <Array as="points">
              <mxPoint x="343" y="571" />
            </Array>
          </mxGeometry>
        </mxCell>
        <mxCell id="GqP4DYXTLEp6i3isbO8n-1238" value="" style="fontSize=12;html=1;endArrow=ERoneToMany;startArrow=ERmandOne;rounded=0;strokeColor=#788AA3;fontColor=#46495D;fillColor=#B2C9AB;entryX=1;entryY=0.5;entryDx=0;entryDy=0;edgeStyle=orthogonalEdgeStyle;exitX=1;exitY=0.5;exitDx=0;exitDy=0;" parent="1" source="GqP4DYXTLEp6i3isbO8n-1140" target="GqP4DYXTLEp6i3isbO8n-1102" edge="1">
          <mxGeometry width="100" height="100" relative="1" as="geometry">
            <mxPoint x="1075" y="553" as="sourcePoint" />
            <mxPoint x="573" y="321" as="targetPoint" />
            <Array as="points">
              <mxPoint x="1105" y="518" />
              <mxPoint x="1105" y="783" />
            </Array>
          </mxGeometry>
        </mxCell>
        <mxCell id="XSGWQffvnAwsiU-Vtgd5-5" value="" style="edgeStyle=entityRelationEdgeStyle;fontSize=12;html=1;endArrow=ERzeroToMany;startArrow=ERmandOne;rounded=0;exitX=1;exitY=0.5;exitDx=0;exitDy=0;entryX=1;entryY=0.5;entryDx=0;entryDy=0;fillColor=#FFCCCC;strokeColor=#788AA3;" parent="1" source="GqP4DYXTLEp6i3isbO8n-1140" target="m6bh8m1xl0rN3810Hj4Z-1" edge="1">
          <mxGeometry width="100" height="100" relative="1" as="geometry">
            <mxPoint x="1105" y="493" as="sourcePoint" />
            <mxPoint x="1205" y="393" as="targetPoint" />
          </mxGeometry>
        </mxCell>
      </root>
    </mxGraphModel>
  </diagram>
</mxfile>
